<svg xmlns="http://www.w3.org/2000/svg" xmlns:xlink="http://www.w3.org/1999/xlink" width="1905.602" height="1254.671" viewBox="0 0 1905.602 1254.671">
  <defs>
    <linearGradient id="linear-gradient" x1="0.008" y1="0.993" x2="0.631" y2="0.496" gradientUnits="objectBoundingBox">
      <stop offset="0" stop-color="#e5cf74"/>
      <stop offset="1" stop-color="#e5cf74" stop-opacity="0"/>
    </linearGradient>
  </defs>
  <g id="Group_9" data-name="Group 9" transform="translate(-279.199 158.5)">
    <g id="XMLID_513_" transform="translate(1288 184)">
      <g id="Group_8" data-name="Group 8" transform="translate(-606)">
        <g id="XMLID_153_" transform="translate(-359.401 418.633)">
          <g id="XMLID_572_">
            <g id="XMLID_585_">
              <path id="XMLID_586_" d="M610.212,476.27,619.2,444.4a38.054,38.054,0,0,0-32.7,5.4,13.226,13.226,0,0,0,4.8-10.8,99.5,99.5,0,0,0-16.2,8.4,32.485,32.485,0,0,0,9.7-15.9,28.09,28.09,0,0,0-24.2,16.8,26.068,26.068,0,0,0-8-14.9c-1.7,4.3-3.3,8.6-5,12.9q-1.65-9.9-4.2-19.8a39.852,39.852,0,0,0-1,19.7,15.383,15.383,0,0,0-11.8-10.6,44.786,44.786,0,0,0,6.7,17.9,44.5,44.5,0,0,0-43.4-2.8,90.746,90.746,0,0,0,13.7-19.4c-2.2-2.7-6.4-.2-8.8,2.3-5.1,5.3-10.2,10.5-15.2,15.8a32.062,32.062,0,0,0,4.3-11.1,33.734,33.734,0,0,0-15.5,6.4c5.6-7.6,11.1-15.2,16.7-22.7,2.3-3.1,4-8.5.4-10a6.444,6.444,0,0,0-4.1.3,55.589,55.589,0,0,0-30.6,25.4c-.6-1.9-1.3-3.8-1.9-5.7a33.593,33.593,0,0,0-8.3,21.1,45.675,45.675,0,0,1-6.5-14.6c-3.1,5.7-4.2,13.7-1.5,19.7-8.4-8.7-22.5-7.5-34.4-5.7,1.8-1.2,3.7-2.5,4.6-4.4s.6-4.7-1.4-5.7a6.128,6.128,0,0,0-2.7-.4,49.782,49.782,0,0,0-26.9,8.5,16.973,16.973,0,0,0,6.8-11,34.155,34.155,0,0,0-13.6,7.4c4.4-5.9,8.8-11.8,13.2-17.8a41.384,41.384,0,0,0-23.6,21c.8-2.2,1.7-4.7,1.1-7s-3.3-4.2-5.4-3c-1.7,1-2,3.2-1.9,5.2-2.4-1.9-3.5-4.9-5.2-7.4s-4.8-4.7-7.6-3.5c-4.1,1.8-2.7,7.8-.7,11.8a19.432,19.432,0,0,0-17.3-9.7,80.3,80.3,0,0,1,6.3,14.8c-5.8-3.1-14.7-4.1-21.2-2.9a13.138,13.138,0,0,0,4.5-10.2,92.032,92.032,0,0,0-30.9,14A10.852,10.852,0,0,0,285,443a35.578,35.578,0,0,0-18.9,8.5,16.647,16.647,0,0,0,7-11.8c.1-1.2,0-2.6-1-3.2s-2.3,0-3.2.6A31.749,31.749,0,0,0,258,449.2a30.872,30.872,0,0,0,3.3-16.4,31.091,31.091,0,0,0-7.2,19.8,136.031,136.031,0,0,0-8.5-20.1,48.911,48.911,0,0,0-1,19.8,18.79,18.79,0,0,0-12.3-9.7,29.988,29.988,0,0,0-2.1,11.1,13.665,13.665,0,0,0-26.1-4.1c2.6-5.6,5.1-11.1,7.7-16.7A24.684,24.684,0,0,0,189.7,445a38.926,38.926,0,0,0,6.1-14.7,54.425,54.425,0,0,0-26.7,18.8l6.9-17.7A24.1,24.1,0,0,0,158.1,451c-1-4.1-1.9-8.1-2.9-12.2a15.441,15.441,0,0,0-8,13.6c-.7-3.3-1.4-6.6-2-10-4.7,2.9-6.9,6.9-9.9,11.5l-2.4,3.6c-1.2-4.8-2.5-9.6-3.7-14.4-2.8,2.8-5.6,5.5-8.4,8.3a5.032,5.032,0,0,1-2.7,1.6c-1.6.1-2.6-1.5-3.4-2.9-2.3-4.1-4.5-8.2-6.8-12.4-1.1,4.6-2.3,9.2-3.4,13.8a33.433,33.433,0,0,0-11-12.3,73.739,73.739,0,0,0-1.6,20.4,11.961,11.961,0,0,0-9.7-8.5,12.25,12.25,0,0,0-11.8,5.3c0-2.3,0-4.5-.1-6.8a29.827,29.827,0,0,0-14.6,7.6,23.64,23.64,0,0,0,4.1-16.7c-4.9,3.5-9.8,7-14.7,10.4a20.118,20.118,0,0,0-3.6-13,31.126,31.126,0,0,0-6.4,14.2,39.718,39.718,0,0,0-9.2-10.8c-1.4,7.8-2.8,15.5-4.2,23.3a23.192,23.192,0,0,1-5.3-12.7c-.1-1.2-.2-2.6-1.2-3.3a3.874,3.874,0,0,0-2.4-.5,21.37,21.37,0,0,0-9.9,2.8,8.111,8.111,0,0,0,4.6-7A37.218,37.218,0,0,0-10,455.2a189.839,189.839,0,0,0,15.4-27,93.908,93.908,0,0,0-37.8,42.5v22.838l649.354-1.114Z" fill="#2c3f4d"/>
            </g>
            <path id="XMLID_584_" d="M521.6,438.6a16.561,16.561,0,0,1-5.9-13.5C519.7,428.9,520.2,433.3,521.6,438.6Z" fill="#2c3f4d"/>
            <path id="XMLID_583_" d="M563,433a22.863,22.863,0,0,1,9.2-15.4C570.7,423.8,568.6,429.7,563,433Z" fill="#2c3f4d"/>
            <path id="XMLID_582_" d="M431.1,447.3a17.839,17.839,0,0,1-5.8-17.4C429.5,434.3,432.1,441.2,431.1,447.3Z" fill="#2c3f4d"/>
            <path id="XMLID_581_" d="M446.8,427.6a12.808,12.808,0,0,1,2.6-9.8C450,421.3,449.3,425.3,446.8,427.6Z" fill="#2c3f4d"/>
            <path id="XMLID_580_" d="M489.2,430.9a22.259,22.259,0,0,1,13.2-15.4C500.4,421.2,494.2,427.6,489.2,430.9Z" fill="#2c3f4d"/>
            <path id="XMLID_579_" d="M357.9,435.6a17.339,17.339,0,0,1-2.9-12.9C358.2,426.2,360,431.4,357.9,435.6Z" fill="#2c3f4d"/>
            <path id="XMLID_578_" d="M302.6,427.6a14.139,14.139,0,0,0-12.8,11.2C295.3,437.8,300.8,432.9,302.6,427.6Z" fill="#2c3f4d"/>
            <path id="XMLID_577_" d="M255,430.6a22.487,22.487,0,0,1,.3-13.1C257.1,421.1,257.1,427.3,255,430.6Z" fill="#2c3f4d"/>
            <path id="XMLID_576_" d="M56.3,436.6a21.924,21.924,0,0,1,6.8-21.7C63.5,421.9,59.8,430.5,56.3,436.6Z" fill="#2c3f4d"/>
            <path id="XMLID_575_" d="M70,443.8a23.794,23.794,0,0,1,8.9-18.2C79.4,431,73.8,439.8,70,443.8Z" fill="#2c3f4d"/>
            <path id="XMLID_574_" d="M594.1,433.4a45.944,45.944,0,0,1-.4-18.1C598.2,421.5,599.1,427.5,594.1,433.4Z" fill="#2c3f4d"/>
            <path id="XMLID_573_" d="M404.5,434a16.482,16.482,0,0,0-13.4-10.8C395.7,428.5,398.6,430.1,404.5,434Z" fill="#2c3f4d"/>
          </g>
        </g>
        <g id="XMLID_116_" transform="translate(-370.001 179)">
          <path id="XMLID_117_" d="M-32.8,732.92V697.4c4-3.7,14-5.9,16.4-.8a3.007,3.007,0,0,1,1.8-2c4.8-2.3,9.9,2.1,13.7,6.2,5.3,5.8,10.7,11.6,16,17.4A25,25,0,0,1,10,699.8a61.107,61.107,0,0,1,10,10.9,41.686,41.686,0,0,1,.7-11.7,4.817,4.817,0,0,1,1.5-3.1c2.5-1.9,5.1,2.2,5.9,5.4.9,3.7,1.8,7.5,2.8,11.2a12.346,12.346,0,0,1,4.5-8.5,23.507,23.507,0,0,1,2.1,13.1c3.3-1.2,4.2-5.6,5-9.2.8-3.7,3-8,6.4-7.5-.2,3.8-.3,7.6-.5,11.4a41.15,41.15,0,0,1,9.1-15.2c1.8-1.9,4.8-3.5,6.3-1.4a4.883,4.883,0,0,1,.6,3.4,23.274,23.274,0,0,1-4.6,12c3.4-.6,6.4-2.9,9.5-4.7s6.9-3.1,10-1.4,4.1,7.5,1,9.2c3.3-2.9,6.9-5.9,11.1-6.4s9.1,2.5,9.2,7.2c.6-3,1.2-6.1,1.8-9.1a5.848,5.848,0,0,1,1-2.7c1-1.1,2.6-1,4-.6,7,2.5,8.7,12.6,14.3,17.9-.7-2.7-1.4-5.6-.9-8.3.6-2.8,2.8-5.3,5.4-4.9,3.9.6,4.6,6.3,4.4,10.6,2.5-1,3.1-5.1,5.6-6.2,2.2-1,4.8.8,5.7,3.3s.6,5.2.2,7.8a26.424,26.424,0,0,1,10.4-11.5,4.2,4.2,0,0,1,2.6-.8c1.8.2,3,2.3,3,4.2a13.57,13.57,0,0,1-1.7,5.5,35.665,35.665,0,0,1,12.1-10.8c1-.6,2.3-1.1,3.3-.4,1.2.7,1.3,2.5,1.1,3.9a22.606,22.606,0,0,1-3.4,9.5,37.089,37.089,0,0,1,15.9.6,32.308,32.308,0,0,1-5-15.5,3.574,3.574,0,0,1,.5-2.3c.8-.9,2.2-.2,3.2.5a45.063,45.063,0,0,1,8.5,8.4c-.4-3.7-.5-8.2,2.2-10.3,2.5-1.9,6.1-.8,8.1,1.6,2.1,2.4,3,5.7,3.8,8.8.7-2.5,1.5-5.1,3.2-6.9,1.7-1.9,4.5-2.8,6.5-1.4,2.4,1.7,2.4,5.5,2.1,8.6a21.739,21.739,0,0,1,4.9-5.9c2-1.5,4.8-2,6.9-.6s2.8,5,1,6.8c2.8-3.4,5.7-6.8,9.6-8.6s8.7-1.6,11.6,1.7a8.809,8.809,0,0,1,11,1.3c-.5-3.4.3-8.3,3.4-8a4.875,4.875,0,0,1,2.5,1.4c2.7,2.3,5.3,4.7,7.9,7.2a53.559,53.559,0,0,1-1.1-13.3,35.8,35.8,0,0,1,11.5,11.1c.5-2.5.1-5.2.6-7.7s2.3-5.2,4.7-4.9c4.2.5,3.5,8,6.4,11.3,1.6-2.5,3.2-5.1,5.6-6.7s5.7-1.9,7.8,0c2.1,2,1.9,6.5-.7,7.5a7.305,7.305,0,0,1,8.5-2.7,8.489,8.489,0,0,1,4.9,8.1c5-2.9,10.9-2.4,16.1.2a27.73,27.73,0,0,1-2.9-14.2,19.139,19.139,0,0,1,11.5,6.8c-.5-2.8-1-5.7-.3-8.4s3.2-5.1,5.7-4.6c4,.8,4.4,7,6.9,10.4a15.915,15.915,0,0,1,8-9.2,17.954,17.954,0,0,1,1,7.6,57.348,57.348,0,0,1,15.9-11c1.6-.7,3.4-1.3,4.9-.5,2.7,1.6,1.8,6,.5,9.1a36.719,36.719,0,0,1,9.3-6.4c1.2-.6,2.6-1.1,3.8-.6,3.5,1.4,1,7.5,2.3,11.3,0-3.8,4.2-6.4,7.6-5.5s5.8,4.2,7.3,7.7a46.1,46.1,0,0,1,2.5-9.7,60.488,60.488,0,0,1,10.1,11.3c2.3-.7.4-4.5.7-7,.4-3.1,4.6-3.9,6.8-2s3,5.2,3.5,8.3c.5-2.9,1.1-5.7,1.7-8.6.2-1.1.6-2.4,1.6-2.8,1.3-.5,2.5.8,3.3,2,1.7,2.4,3.4,4.9,5.1,7.3.5-3.1,1.1-6.3,2.7-8.9s4.4-4.6,7.2-4.1,4.9,4.4,3.4,7a24.356,24.356,0,0,1,11.2-8.4,13.8,13.8,0,0,1-.1,7.8c2.7-2.6,5.6-5.3,9.1-5.8s7.7,2.4,7.3,6.3c4.2-2.3,9.3-1.2,13.8.2a22.686,22.686,0,0,1-2.5-10.9,3.558,3.558,0,0,1,.9-2.7,2.812,2.812,0,0,1,2.8.1,19.991,19.991,0,0,1,6.7,4.9,31.024,31.024,0,0,1,1-10.5,6.19,6.19,0,0,1,1.3-2.7c1.9-1.8,5-.2,6.3,2.2,1.3,2.3,1.8,5.2,3.3,7.4a9.984,9.984,0,0,1,6-6.2c.7-.2,1.5-.4,2,.2a2.73,2.73,0,0,1,.5,1.8c.1,2.6.3,5.1.4,7.7,1.8-2.5,3.6-5.1,6-6.8s5.6-2.5,8.2-1.1,4.1,5.3,2.4,8c1.7-1.4,2.9-3.3,4.5-4.8s3.9-2.5,5.8-1.6,2.5,4.5.6,5.5c5.2-4.4,13.7-2.7,17.2,3.5,2.4-3.2,7-5.6,10.7-6.3s8.1,2.9,6.9,6.8v40.82Z" fill="#758406"/>
          <path id="XMLID_118_" d="M160,704.7a25.3,25.3,0,0,0,0-15.4c-.8-2.4-2-4.7-1.8-7.2a14.1,14.1,0,0,1,7.3,10C166.4,696.6,162.7,701.1,160,704.7Z" fill="#768d18"/>
          <path id="XMLID_119_" d="M137.2,706.3a54.41,54.41,0,0,1-3-6.5,9.548,9.548,0,0,1-.9-3.6,5.347,5.347,0,0,1,3.4-5C139.3,695.5,139.8,701.9,137.2,706.3Z" fill="#768d18"/>
          <path id="XMLID_120_" d="M73.9,693.6a25.962,25.962,0,0,1-8.4-4.4c-2.4-2.2-4.2-5.6-3.6-8.9a29.6,29.6,0,0,1,7.9,5.3C72.2,688,74.1,690.1,73.9,693.6Z" fill="#768d18"/>
          <path id="XMLID_121_" d="M78.8,694.4a64.749,64.749,0,0,1-2.2-43C80.4,664.4,79.7,680.8,78.8,694.4Z" fill="#768d18"/>
          <path id="XMLID_122_" d="M27.5,688.5c-6-10.4-5.4-24.8,1.4-34.6C30.6,664.6,30.4,678.2,27.5,688.5Z" fill="#768d18"/>
          <path id="XMLID_123_" d="M12.1,693.2a14.912,14.912,0,0,1-1.7-5.9,35.237,35.237,0,0,1-.5-8.6,11.889,11.889,0,0,1,3.4-7.5A33.81,33.81,0,0,1,12.1,693.2Z" fill="#768d18"/>
          <path id="XMLID_124_" d="M39.4,686.1c-2.9-9.1-.2-20,6.6-26.2C46,668.9,44.5,678.9,39.4,686.1Z" fill="#768d18"/>
          <path id="XMLID_125_" d="M2.6,696.4a12.234,12.234,0,0,1-8.9-6.8,13.917,13.917,0,0,1,0-11.8C-2.6,684.4.5,689,2.6,696.4Z" fill="#768d18"/>
          <path id="XMLID_126_" d="M190.2,684.4a12.878,12.878,0,0,0-8.7,6.6,14.842,14.842,0,0,0-.8,11.5A89.045,89.045,0,0,0,190.2,684.4Z" fill="#768d18"/>
          <path id="XMLID_127_" d="M325.1,700.2a64.109,64.109,0,0,1-4-6.1c-1.4-2.4-2.7-5.1-2.6-7.9.1-4.3,3.2-7.7,6.1-10.6A168.431,168.431,0,0,1,325.1,700.2Z" fill="#768d18"/>
          <path id="XMLID_128_" d="M429.9,676.7c-8.2,1.6-15.3,8.6-17.5,17.4a12.574,12.574,0,0,0,6.9-3C424.5,686.9,427.1,683.1,429.9,676.7Z" fill="#768d18"/>
          <path id="XMLID_129_" d="M454.2,692c-1.5.2-2.4-1.6-3-3.1-1-2.9-2-6-1.6-9.1s2.7-6.1,5.5-6.1C456.6,679.3,455.8,686.5,454.2,692Z" fill="#768d18"/>
          <path id="XMLID_130_" d="M500.7,689.8a21.185,21.185,0,0,1-.5-4.4c-.1-4.1-.1-8.5,1.9-11.9,1.5-2.5,3.8-4.1,6.1-5.6a87.413,87.413,0,0,1-4.4,16.7C503.1,686.9,502.9,689,500.7,689.8Z" fill="#768d18"/>
          <path id="XMLID_131_" d="M562.2,660.1c-7.5,2.6-13.7,9.4-16,17.6a20.936,20.936,0,0,0,10.1-6.8A62.775,62.775,0,0,0,562.2,660.1Z" fill="#768d18"/>
          <path id="XMLID_132_" d="M588.6,658.4c-10.5,1.5-19.8,10.3-22.5,21.5,5.4-.8,9.5-4.5,13.4-8.7A77.934,77.934,0,0,0,588.6,658.4Z" fill="#768d18"/>
          <path id="XMLID_133_" d="M535.9,675.5a21.023,21.023,0,0,0-8.7-17.1c.7,3.3.7,6.8,2.1,9.8A14.343,14.343,0,0,0,535.9,675.5Z" fill="#768d18"/>
        </g>
      </g>
      <g id="Group_8-2" data-name="Group 8">
        <g id="XMLID_153_2" data-name="XMLID_153_" transform="translate(-359.401 418.633)">
          <g id="XMLID_572_2" data-name="XMLID_572_">
            <g id="XMLID_585_2" data-name="XMLID_585_">
              <path id="XMLID_586_2" data-name="XMLID_586_" d="M607.11,478.526,619.2,444.4a38.054,38.054,0,0,0-32.7,5.4,13.226,13.226,0,0,0,4.8-10.8,99.5,99.5,0,0,0-16.2,8.4,32.485,32.485,0,0,0,9.7-15.9,28.09,28.09,0,0,0-24.2,16.8,26.068,26.068,0,0,0-8-14.9c-1.7,4.3-3.3,8.6-5,12.9q-1.65-9.9-4.2-19.8a39.852,39.852,0,0,0-1,19.7,15.383,15.383,0,0,0-11.8-10.6,44.786,44.786,0,0,0,6.7,17.9,44.5,44.5,0,0,0-43.4-2.8,90.746,90.746,0,0,0,13.7-19.4c-2.2-2.7-6.4-.2-8.8,2.3-5.1,5.3-10.2,10.5-15.2,15.8a32.062,32.062,0,0,0,4.3-11.1,33.734,33.734,0,0,0-15.5,6.4c5.6-7.6,11.1-15.2,16.7-22.7,2.3-3.1,4-8.5.4-10a6.444,6.444,0,0,0-4.1.3,55.589,55.589,0,0,0-30.6,25.4c-.6-1.9-1.3-3.8-1.9-5.7a33.593,33.593,0,0,0-8.3,21.1,45.675,45.675,0,0,1-6.5-14.6c-3.1,5.7-4.2,13.7-1.5,19.7-8.4-8.7-22.5-7.5-34.4-5.7,1.8-1.2,3.7-2.5,4.6-4.4s.6-4.7-1.4-5.7a6.128,6.128,0,0,0-2.7-.4,49.782,49.782,0,0,0-26.9,8.5,16.973,16.973,0,0,0,6.8-11,34.155,34.155,0,0,0-13.6,7.4c4.4-5.9,8.8-11.8,13.2-17.8a41.384,41.384,0,0,0-23.6,21c.8-2.2,1.7-4.7,1.1-7s-3.3-4.2-5.4-3c-1.7,1-2,3.2-1.9,5.2-2.4-1.9-3.5-4.9-5.2-7.4s-4.8-4.7-7.6-3.5c-4.1,1.8-2.7,7.8-.7,11.8a19.432,19.432,0,0,0-17.3-9.7,80.3,80.3,0,0,1,6.3,14.8c-5.8-3.1-14.7-4.1-21.2-2.9a13.138,13.138,0,0,0,4.5-10.2,92.032,92.032,0,0,0-30.9,14A10.852,10.852,0,0,0,285,443a35.578,35.578,0,0,0-18.9,8.5,16.647,16.647,0,0,0,7-11.8c.1-1.2,0-2.6-1-3.2s-2.3,0-3.2.6A31.749,31.749,0,0,0,258,449.2a30.872,30.872,0,0,0,3.3-16.4,31.091,31.091,0,0,0-7.2,19.8,136.031,136.031,0,0,0-8.5-20.1,48.911,48.911,0,0,0-1,19.8,18.79,18.79,0,0,0-12.3-9.7,29.988,29.988,0,0,0-2.1,11.1,13.665,13.665,0,0,0-26.1-4.1c2.6-5.6,5.1-11.1,7.7-16.7A24.684,24.684,0,0,0,189.7,445a38.926,38.926,0,0,0,6.1-14.7,54.425,54.425,0,0,0-26.7,18.8l6.9-17.7A24.1,24.1,0,0,0,158.1,451c-1-4.1-1.9-8.1-2.9-12.2a15.441,15.441,0,0,0-8,13.6c-.7-3.3-1.4-6.6-2-10-4.7,2.9-6.9,6.9-9.9,11.5l-2.4,3.6c-1.2-4.8-2.5-9.6-3.7-14.4-2.8,2.8-5.6,5.5-8.4,8.3a5.032,5.032,0,0,1-2.7,1.6c-1.6.1-2.6-1.5-3.4-2.9-2.3-4.1-4.5-8.2-6.8-12.4-1.1,4.6-2.3,9.2-3.4,13.8a33.433,33.433,0,0,0-11-12.3,73.739,73.739,0,0,0-1.6,20.4,11.961,11.961,0,0,0-9.7-8.5,12.25,12.25,0,0,0-11.8,5.3c0-2.3,0-4.5-.1-6.8a29.827,29.827,0,0,0-14.6,7.6,23.64,23.64,0,0,0,4.1-16.7c-4.9,3.5-9.8,7-14.7,10.4a20.118,20.118,0,0,0-3.6-13,31.126,31.126,0,0,0-6.4,14.2,39.718,39.718,0,0,0-9.2-10.8c-1.4,7.8-2.8,15.5-4.2,23.3a23.192,23.192,0,0,1-5.3-12.7c-.1-1.2-.2-2.6-1.2-3.3a3.874,3.874,0,0,0-2.4-.5,21.37,21.37,0,0,0-9.9,2.8,8.111,8.111,0,0,0,4.6-7A37.218,37.218,0,0,0-10,455.2a189.839,189.839,0,0,0,15.4-27,93.908,93.908,0,0,0-37.8,42.5v19.452H591.3Z" fill="#2c3f4d"/>
            </g>
            <path id="XMLID_584_2" data-name="XMLID_584_" d="M521.6,438.6a16.561,16.561,0,0,1-5.9-13.5C519.7,428.9,520.2,433.3,521.6,438.6Z" fill="#2c3f4d"/>
            <path id="XMLID_583_2" data-name="XMLID_583_" d="M563,433a22.863,22.863,0,0,1,9.2-15.4C570.7,423.8,568.6,429.7,563,433Z" fill="#2c3f4d"/>
            <path id="XMLID_582_2" data-name="XMLID_582_" d="M431.1,447.3a17.839,17.839,0,0,1-5.8-17.4C429.5,434.3,432.1,441.2,431.1,447.3Z" fill="#2c3f4d"/>
            <path id="XMLID_581_2" data-name="XMLID_581_" d="M446.8,427.6a12.808,12.808,0,0,1,2.6-9.8C450,421.3,449.3,425.3,446.8,427.6Z" fill="#2c3f4d"/>
            <path id="XMLID_580_2" data-name="XMLID_580_" d="M489.2,430.9a22.259,22.259,0,0,1,13.2-15.4C500.4,421.2,494.2,427.6,489.2,430.9Z" fill="#2c3f4d"/>
            <path id="XMLID_579_2" data-name="XMLID_579_" d="M357.9,435.6a17.339,17.339,0,0,1-2.9-12.9C358.2,426.2,360,431.4,357.9,435.6Z" fill="#2c3f4d"/>
            <path id="XMLID_578_2" data-name="XMLID_578_" d="M302.6,427.6a14.139,14.139,0,0,0-12.8,11.2C295.3,437.8,300.8,432.9,302.6,427.6Z" fill="#2c3f4d"/>
            <path id="XMLID_577_2" data-name="XMLID_577_" d="M255,430.6a22.487,22.487,0,0,1,.3-13.1C257.1,421.1,257.1,427.3,255,430.6Z" fill="#2c3f4d"/>
            <path id="XMLID_576_2" data-name="XMLID_576_" d="M56.3,436.6a21.924,21.924,0,0,1,6.8-21.7C63.5,421.9,59.8,430.5,56.3,436.6Z" fill="#2c3f4d"/>
            <path id="XMLID_575_2" data-name="XMLID_575_" d="M70,443.8a23.794,23.794,0,0,1,8.9-18.2C79.4,431,73.8,439.8,70,443.8Z" fill="#2c3f4d"/>
            <path id="XMLID_574_2" data-name="XMLID_574_" d="M594.1,433.4a45.944,45.944,0,0,1-.4-18.1C598.2,421.5,599.1,427.5,594.1,433.4Z" fill="#2c3f4d"/>
            <path id="XMLID_573_2" data-name="XMLID_573_" d="M404.5,434a16.482,16.482,0,0,0-13.4-10.8C395.7,428.5,398.6,430.1,404.5,434Z" fill="#2c3f4d"/>
          </g>
        </g>
        <g id="XMLID_153_3" data-name="XMLID_153_" transform="translate(277.6 418.633)">
          <g id="XMLID_572_3" data-name="XMLID_572_">
            <g id="XMLID_585_3" data-name="XMLID_585_">
              <path id="XMLID_586_3" data-name="XMLID_586_" d="M602.162,468.125,619.2,444.4a38.054,38.054,0,0,0-32.7,5.4,13.226,13.226,0,0,0,4.8-10.8,99.5,99.5,0,0,0-16.2,8.4,32.485,32.485,0,0,0,9.7-15.9,28.09,28.09,0,0,0-24.2,16.8,26.068,26.068,0,0,0-8-14.9c-1.7,4.3-3.3,8.6-5,12.9q-1.65-9.9-4.2-19.8a39.852,39.852,0,0,0-1,19.7,15.383,15.383,0,0,0-11.8-10.6,44.786,44.786,0,0,0,6.7,17.9,44.5,44.5,0,0,0-43.4-2.8,90.746,90.746,0,0,0,13.7-19.4c-2.2-2.7-6.4-.2-8.8,2.3-5.1,5.3-10.2,10.5-15.2,15.8a32.062,32.062,0,0,0,4.3-11.1,33.734,33.734,0,0,0-15.5,6.4c5.6-7.6,11.1-15.2,16.7-22.7,2.3-3.1,4-8.5.4-10a6.444,6.444,0,0,0-4.1.3,55.589,55.589,0,0,0-30.6,25.4c-.6-1.9-1.3-3.8-1.9-5.7a33.593,33.593,0,0,0-8.3,21.1,45.675,45.675,0,0,1-6.5-14.6c-3.1,5.7-4.2,13.7-1.5,19.7-8.4-8.7-22.5-7.5-34.4-5.7,1.8-1.2,3.7-2.5,4.6-4.4s.6-4.7-1.4-5.7a6.128,6.128,0,0,0-2.7-.4,49.782,49.782,0,0,0-26.9,8.5,16.973,16.973,0,0,0,6.8-11,34.155,34.155,0,0,0-13.6,7.4c4.4-5.9,8.8-11.8,13.2-17.8a41.384,41.384,0,0,0-23.6,21c.8-2.2,1.7-4.7,1.1-7s-3.3-4.2-5.4-3c-1.7,1-2,3.2-1.9,5.2-2.4-1.9-3.5-4.9-5.2-7.4s-4.8-4.7-7.6-3.5c-4.1,1.8-2.7,7.8-.7,11.8a19.432,19.432,0,0,0-17.3-9.7,80.3,80.3,0,0,1,6.3,14.8c-5.8-3.1-14.7-4.1-21.2-2.9a13.138,13.138,0,0,0,4.5-10.2,92.032,92.032,0,0,0-30.9,14A10.852,10.852,0,0,0,285,443a35.578,35.578,0,0,0-18.9,8.5,16.647,16.647,0,0,0,7-11.8c.1-1.2,0-2.6-1-3.2s-2.3,0-3.2.6A31.749,31.749,0,0,0,258,449.2a30.872,30.872,0,0,0,3.3-16.4,31.091,31.091,0,0,0-7.2,19.8,136.031,136.031,0,0,0-8.5-20.1,48.911,48.911,0,0,0-1,19.8,18.79,18.79,0,0,0-12.3-9.7,29.988,29.988,0,0,0-2.1,11.1,13.665,13.665,0,0,0-26.1-4.1c2.6-5.6,5.1-11.1,7.7-16.7A24.684,24.684,0,0,0,189.7,445a38.926,38.926,0,0,0,6.1-14.7,54.425,54.425,0,0,0-26.7,18.8l6.9-17.7A24.1,24.1,0,0,0,158.1,451c-1-4.1-1.9-8.1-2.9-12.2a15.441,15.441,0,0,0-8,13.6c-.7-3.3-1.4-6.6-2-10-4.7,2.9-6.9,6.9-9.9,11.5l-2.4,3.6c-1.2-4.8-2.5-9.6-3.7-14.4-2.8,2.8-5.6,5.5-8.4,8.3a5.032,5.032,0,0,1-2.7,1.6c-1.6.1-2.6-1.5-3.4-2.9-2.3-4.1-4.5-8.2-6.8-12.4-1.1,4.6-2.3,9.2-3.4,13.8a33.433,33.433,0,0,0-11-12.3,73.739,73.739,0,0,0-1.6,20.4,11.961,11.961,0,0,0-9.7-8.5,12.25,12.25,0,0,0-11.8,5.3c0-2.3,0-4.5-.1-6.8a29.827,29.827,0,0,0-14.6,7.6,23.64,23.64,0,0,0,4.1-16.7c-4.9,3.5-9.8,7-14.7,10.4a20.118,20.118,0,0,0-3.6-13,31.126,31.126,0,0,0-6.4,14.2,39.718,39.718,0,0,0-9.2-10.8c-1.4,7.8-2.8,15.5-4.2,23.3a23.192,23.192,0,0,1-5.3-12.7c-.1-1.2-.2-2.6-1.2-3.3a3.874,3.874,0,0,0-2.4-.5,21.37,21.37,0,0,0-9.9,2.8,8.111,8.111,0,0,0,4.6-7A37.218,37.218,0,0,0-10,455.2a189.839,189.839,0,0,0,15.4-27,93.908,93.908,0,0,0-37.8,42.5l-10.952,21.9H581.971Z" fill="#2c3f4d"/>
            </g>
            <path id="XMLID_584_3" data-name="XMLID_584_" d="M521.6,438.6a16.561,16.561,0,0,1-5.9-13.5C519.7,428.9,520.2,433.3,521.6,438.6Z" fill="#2c3f4d"/>
            <path id="XMLID_583_3" data-name="XMLID_583_" d="M563,433a22.863,22.863,0,0,1,9.2-15.4C570.7,423.8,568.6,429.7,563,433Z" fill="#2c3f4d"/>
            <path id="XMLID_582_3" data-name="XMLID_582_" d="M431.1,447.3a17.839,17.839,0,0,1-5.8-17.4C429.5,434.3,432.1,441.2,431.1,447.3Z" fill="#2c3f4d"/>
            <path id="XMLID_581_3" data-name="XMLID_581_" d="M446.8,427.6a12.808,12.808,0,0,1,2.6-9.8C450,421.3,449.3,425.3,446.8,427.6Z" fill="#2c3f4d"/>
            <path id="XMLID_580_3" data-name="XMLID_580_" d="M489.2,430.9a22.259,22.259,0,0,1,13.2-15.4C500.4,421.2,494.2,427.6,489.2,430.9Z" fill="#2c3f4d"/>
            <path id="XMLID_579_3" data-name="XMLID_579_" d="M357.9,435.6a17.339,17.339,0,0,1-2.9-12.9C358.2,426.2,360,431.4,357.9,435.6Z" fill="#2c3f4d"/>
            <path id="XMLID_578_3" data-name="XMLID_578_" d="M302.6,427.6a14.139,14.139,0,0,0-12.8,11.2C295.3,437.8,300.8,432.9,302.6,427.6Z" fill="#2c3f4d"/>
            <path id="XMLID_577_3" data-name="XMLID_577_" d="M255,430.6a22.487,22.487,0,0,1,.3-13.1C257.1,421.1,257.1,427.3,255,430.6Z" fill="#2c3f4d"/>
            <path id="XMLID_576_3" data-name="XMLID_576_" d="M56.3,436.6a21.924,21.924,0,0,1,6.8-21.7C63.5,421.9,59.8,430.5,56.3,436.6Z" fill="#2c3f4d"/>
            <path id="XMLID_575_3" data-name="XMLID_575_" d="M70,443.8a23.794,23.794,0,0,1,8.9-18.2C79.4,431,73.8,439.8,70,443.8Z" fill="#2c3f4d"/>
            <path id="XMLID_574_3" data-name="XMLID_574_" d="M594.1,433.4a45.944,45.944,0,0,1-.4-18.1C598.2,421.5,599.1,427.5,594.1,433.4Z" fill="#2c3f4d"/>
            <path id="XMLID_573_3" data-name="XMLID_573_" d="M404.5,434a16.482,16.482,0,0,0-13.4-10.8C395.7,428.5,398.6,430.1,404.5,434Z" fill="#2c3f4d"/>
          </g>
        </g>
        <g id="XMLID_257_" transform="translate(148 -278.4)">
          <g id="XMLID_255_">
            <g id="XMLID_236_">
              <path id="XMLID_258_" d="M237.8,610.2c-.6-206.8-4.8-416.3-12.4-622.8l6-.5C239,193.4,243.2,403,243.8,610Z" fill="#3d5429"/>
            </g>
            <path id="XMLID_237_" d="M224.4,81.9a2.53,2.53,0,0,1-4.3.8c-1.2-1.4-1.4-3.6-1.3-5.7.6-8.7,5.9-16,10.9-22.5C229.8,63,226.8,73.7,224.4,81.9Z" fill="#3d5429"/>
            <path id="XMLID_238_" d="M243.2,99.6c-.4-3.9-.1-7.8-.2-11.8-.1-3.9-.6-8-2.5-11.1s-5.6-5-8.7-3.5C233.4,82.1,237,94.6,243.2,99.6Z" fill="#3d5429"/>
            <path id="XMLID_239_" d="M229.9,123.3c-2.2,1.5-5.1.6-7.5,1.7-2.8,1.3-4.3,4.9-5.6,8.2-2,5.2-4,10.8-3.2,16.3C224,145.4,229,136.1,229.9,123.3Z" fill="#3d5429"/>
            <path id="XMLID_240_" d="M249.5,175.7c-2.3,2.3-5.9,1.5-8.1-.7s-3.4-5.6-4.5-8.8a97.249,97.249,0,0,1-3.9-13c2.8,4,7.6,5.3,11.3,8.1C247.9,164.1,250.3,170.5,249.5,175.7Z" fill="#3d5429"/>
            <path id="XMLID_241_" d="M235.3,184c-3.1.4-6.3.7-9.2,2.1a11.2,11.2,0,0,0-6.3,7.8c-.7,3.6,1.1,7.9,4.2,8.5C229,198.2,234.2,191,235.3,184Z" fill="#3d5429"/>
            <path id="XMLID_242_" d="M242.1,214.3c.2-6.9-2.4-13.8-7-17.9C234.3,203,237.3,210.9,242.1,214.3Z" fill="#3d5429"/>
            <path id="XMLID_243_" d="M236.3,225.4A34.4,34.4,0,0,1,221.9,240a112.239,112.239,0,0,0,8.7-19.7c1.5-4.4,2.7-9.3,1.7-13.8-.9-4.4,2.1-8.2,3.5-12.5a117.993,117.993,0,0,0,11.6,37.8C243.6,230.8,238.8,229.2,236.3,225.4Z" fill="#3d5429"/>
            <path id="XMLID_244_" d="M236.2,250.5c-1.5,7.8-3.3,16.1-8.3,21.5a105.747,105.747,0,0,0,6-34A86.094,86.094,0,0,0,236.2,250.5Z" fill="#3d5429"/>
            <path id="XMLID_245_" d="M237.9,258.1c-.3-.2,0-.8.3-.8s.6.4.7.8q3.3,7.05,6.3,14.4c2.2,5.2,4.2,11.3,2.4,16.8-3.5-4.7-7-9.4-10.6-14.1a9.186,9.186,0,0,1-2.2-4.4C234.6,268.1,236.3,259.9,237.9,258.1Z" fill="#3d5429"/>
            <path id="XMLID_246_" d="M223.5,288.2a24.417,24.417,0,0,0-1.9,18,2.821,2.821,0,0,0,.9,1.6c.7.4,1.5-.2,2.1-.8,4.3-4.1,11.5-13,11.7-20C236.9,275.1,226.5,282.6,223.5,288.2Z" fill="#3d5429"/>
            <path id="XMLID_247_" d="M248.3,315.2c-1.3.9-2.7-.5-3.6-1.8a53.837,53.837,0,0,1-7.5-16.9C243.6,298.7,248.8,307.1,248.3,315.2Z" fill="#3d5429"/>
            <path id="XMLID_248_" d="M250.7,349.9a7,7,0,0,1-6-2.3,25.123,25.123,0,0,1-4-6c-1.9-3.5-4-7.4-4.1-11.7,0-.6,1.7-11.1,1.3-10.8-6.3,4.5-9.4,14.4-7.2,22.6a31.694,31.694,0,0,0,6.3-12.4c3.7.6,6.6,3.1,9,6.5C248.2,339.1,249.6,345.6,250.7,349.9Z" fill="#3d5429"/>
            <path id="XMLID_249_" d="M237.9,357.3c-4.9,5.9-7.2,14.7-6,22.8C236.7,375.4,238.9,364.5,237.9,357.3Z" fill="#3d5429"/>
            <path id="XMLID_250_" d="M250.7,399.7c-3.3.4-5.9-2.9-7.7-6.1a62.712,62.712,0,0,1-5.9-14.1c3.9-.2,7.6,3.2,10,6.7C249.4,389.9,249.3,395.4,250.7,399.7Z" fill="#3d5429"/>
            <path id="XMLID_251_" d="M225.4,441.3a32.717,32.717,0,0,1,7.6-21.4c1.8-2,4-3.8,6.3-3.6.1,3.3.2,6.1-.9,9.1a38.188,38.188,0,0,1-6.2,10.3C229.7,438.9,228.1,438.3,225.4,441.3Z" fill="#3d5429"/>
            <path id="XMLID_252_" d="M251.2,477.6c-2.6-1-4.2-3.9-5.5-6.7a72.542,72.542,0,0,1-6-23.7C248.4,453.9,252.4,465.2,251.2,477.6Z" fill="#3d5429"/>
            <path id="XMLID_253_" d="M239.9,487.4a3.31,3.31,0,0,0,0,2.4,62.608,62.608,0,0,0,8.1,17.1c-4-12.9-6.5-27.8-8.2-41.4C238.7,472.4,239.5,480.4,239.9,487.4Z" fill="#3d5429"/>
            <path id="XMLID_254_" d="M241.2,486.4a66.758,66.758,0,0,1-8.7,28.9q1.8-33.75,6.3-67.4a1.95,1.95,0,0,0,.1-1.3c-.2-.4-.6.5-.3.3Z" fill="#3d5429"/>
          </g>
          <g id="XMLID_365_">
            <g id="XMLID_384_">
              <path id="XMLID_385_" d="M111.3,634.7c.6-206.8,4.8-416.3,12.4-622.8l-6-.5c-7.6,206.5-11.8,416.1-12.4,623.1Z" fill="#3d5429"/>
            </g>
            <path id="XMLID_383_" d="M124.7,106.5a2.53,2.53,0,0,0,4.3.8c1.2-1.4,1.4-3.6,1.3-5.7-.6-8.7-5.9-16-10.9-22.5C119.3,87.6,122.4,98.3,124.7,106.5Z" fill="#3d5429"/>
            <path id="XMLID_382_" d="M105.9,124.2c.4-3.9.1-7.8.2-11.8.1-3.9.6-8,2.5-11.1s5.6-5,8.7-3.5C115.7,106.6,112.1,119.1,105.9,124.2Z" fill="#3d5429"/>
            <path id="XMLID_381_" d="M119.2,147.8c2.2,1.5,5.1.6,7.5,1.7,2.8,1.3,4.3,4.9,5.6,8.2,2,5.2,4,10.8,3.2,16.3C125.1,170,120.1,160.7,119.2,147.8Z" fill="#3d5429"/>
            <path id="XMLID_380_" d="M99.6,200.2c2.3,2.3,5.9,1.5,8.1-.7s3.4-5.6,4.5-8.8a97.251,97.251,0,0,0,3.9-13c-2.8,4-7.6,5.3-11.3,8.1C101.2,188.7,98.8,195.1,99.6,200.2Z" fill="#3d5429"/>
            <path id="XMLID_379_" d="M113.8,208.6c3.1.4,6.3.7,9.2,2.1a11.2,11.2,0,0,1,6.3,7.8c.7,3.6-1.1,7.9-4.2,8.5C120.2,222.7,114.9,215.6,113.8,208.6Z" fill="#3d5429"/>
            <path id="XMLID_378_" d="M107,238.8c-.2-6.9,2.4-13.8,7-17.9C114.8,227.6,111.8,235.4,107,238.8Z" fill="#3d5429"/>
            <path id="XMLID_377_" d="M112.8,250a34.4,34.4,0,0,0,14.4,14.6,112.239,112.239,0,0,1-8.7-19.7c-1.5-4.4-2.7-9.3-1.7-13.8.9-4.4-2.1-8.2-3.5-12.5a117.993,117.993,0,0,1-11.6,37.8C105.6,255.3,110.3,253.7,112.8,250Z" fill="#3d5429"/>
            <path id="XMLID_376_" d="M113,275c1.5,7.8,3.3,16.1,8.3,21.5a105.747,105.747,0,0,1-6-34A95.526,95.526,0,0,1,113,275Z" fill="#3d5429"/>
            <path id="XMLID_375_" d="M111.2,282.7c.3-.2,0-.8-.3-.8s-.6.4-.7.8q-3.3,7.05-6.3,14.4c-2.2,5.2-4.2,11.3-2.4,16.8,3.5-4.7,7-9.4,10.6-14.1a9.186,9.186,0,0,0,2.2-4.4C114.5,292.7,112.9,284.4,111.2,282.7Z" fill="#3d5429"/>
            <path id="XMLID_374_" d="M125.6,312.7a24.417,24.417,0,0,1,1.9,18,2.821,2.821,0,0,1-.9,1.6c-.7.4-1.5-.2-2.1-.8-4.3-4.1-11.5-13-11.7-20C112.3,299.6,122.6,307.1,125.6,312.7Z" fill="#3d5429"/>
            <path id="XMLID_373_" d="M100.9,339.7c1.3.9,2.7-.5,3.6-1.8A53.837,53.837,0,0,0,112,321C105.5,323.2,100.3,331.7,100.9,339.7Z" fill="#3d5429"/>
            <path id="XMLID_372_" d="M98.5,374.4a7,7,0,0,0,6-2.3,24.172,24.172,0,0,0,4-6c1.9-3.5,4-7.4,4.1-11.7,0-.6-1.7-11.1-1.3-10.8,6.3,4.5,9.4,14.4,7.2,22.6a31.694,31.694,0,0,1-6.3-12.4c-3.7.6-6.6,3.1-9,6.5C100.9,363.6,99.6,370.2,98.5,374.4Z" fill="#3d5429"/>
            <path id="XMLID_371_" d="M111.3,381.9c4.9,5.9,7.2,14.7,6,22.8C112.4,400,110.2,389.1,111.3,381.9Z" fill="#3d5429"/>
            <path id="XMLID_370_" d="M98.4,424.3c3.3.4,5.9-2.9,7.7-6.1a62.712,62.712,0,0,0,5.9-14.1c-3.9-.2-7.6,3.2-10,6.7C99.7,414.4,99.8,420,98.4,424.3Z" fill="#3d5429"/>
            <path id="XMLID_369_" d="M123.7,465.9a32.717,32.717,0,0,0-7.6-21.4c-1.8-2-4-3.8-6.3-3.6-.1,3.3-.2,6.1.9,9.1a38.188,38.188,0,0,0,6.2,10.3C119.4,463.5,121,462.9,123.7,465.9Z" fill="#3d5429"/>
            <path id="XMLID_368_" d="M97.9,502.2c2.6-1,4.2-3.9,5.5-6.7a72.542,72.542,0,0,0,6-23.7C100.7,478.5,96.7,489.7,97.9,502.2Z" fill="#3d5429"/>
            <path id="XMLID_367_" d="M109.2,511.9a3.31,3.31,0,0,1,0,2.4,62.607,62.607,0,0,1-8.1,17.1c4-12.9,6.5-27.8,8.2-41.4C110.5,496.9,109.6,504.9,109.2,511.9Z" fill="#3d5429"/>
            <path id="XMLID_366_" d="M107.9,511a66.758,66.758,0,0,0,8.7,28.9q-1.8-33.75-6.3-67.4a1.95,1.95,0,0,1-.1-1.3c.2-.4.6.5.3.3Z" fill="#3d5429"/>
          </g>
          <g id="XMLID_386_">
            <g id="XMLID_405_">
              <path id="XMLID_406_" d="M149.9,640.4c.6-230.5,4.8-464.1,12.4-694.2l-6-.5c-7.6,230.2-11.8,463.9-12.4,694.5Z" fill="#3c505b"/>
            </g>
            <path id="XMLID_404_" d="M163.4,51.5a2.42,2.42,0,0,0,4.3.9c1.2-1.5,1.4-4.1,1.3-6.3-.6-9.8-5.9-17.8-10.9-25.1C157.9,30.5,161,42.4,163.4,51.5Z" fill="#3c505b"/>
            <path id="XMLID_403_" d="M144.5,71.3c.4-4.3.1-8.7.2-13.1s.6-8.9,2.5-12.4,5.6-5.6,8.7-3.9C154.4,51.7,150.7,65.7,144.5,71.3Z" fill="#3c505b"/>
            <path id="XMLID_402_" d="M157.8,97.7c2.2,1.7,5.1.7,7.5,1.9,2.8,1.4,4.3,5.4,5.6,9.1,2,5.8,4,12,3.2,18.2C163.8,122.4,158.8,112,157.8,97.7Z" fill="#3c505b"/>
            <path id="XMLID_401_" d="M138.2,156.1c2.3,2.5,5.9,1.7,8.1-.8s3.4-6.2,4.5-9.8a119.152,119.152,0,0,0,3.9-14.5c-2.8,4.4-7.6,5.9-11.3,9C139.8,143.2,137.5,150.3,138.2,156.1Z" fill="#3c505b"/>
            <path id="XMLID_400_" d="M152.4,165.3c3.1.4,6.3.7,9.2,2.3a12.442,12.442,0,0,1,6.3,8.6c.7,4-1.1,8.9-4.2,9.4C158.8,181.1,153.5,173.2,152.4,165.3Z" fill="#3c505b"/>
            <path id="XMLID_399_" d="M145.7,199.1c-.2-7.7,2.4-15.3,7-19.9C153.4,186.5,150.5,195.3,145.7,199.1Z" fill="#3c505b"/>
            <path id="XMLID_398_" d="M151.4,211.5a36.688,36.688,0,0,0,14.4,16.3,132.557,132.557,0,0,1-8.7-22c-1.5-4.9-2.7-10.3-1.7-15.4.9-4.9-2.1-9.2-3.5-14a141.736,141.736,0,0,1-11.6,42.1C144.2,217.5,148.9,215.7,151.4,211.5Z" fill="#3c505b"/>
            <path id="XMLID_397_" d="M151.6,239.4c1.5,8.7,3.3,17.9,8.3,24a129.5,129.5,0,0,1-6-37.9A100.774,100.774,0,0,1,151.6,239.4Z" fill="#3c505b"/>
            <path id="XMLID_396_" d="M149.8,247.9c.3-.2,0-.9-.3-.9s-.6.5-.7.9c-2.2,5.3-4.3,10.6-6.3,16-2.2,5.8-4.2,12.6-2.4,18.7,3.5-5.3,7-10.5,10.6-15.8a10.461,10.461,0,0,0,2.2-4.9C153.1,259.1,151.5,249.9,149.8,247.9Z" fill="#3c505b"/>
            <path id="XMLID_395_" d="M164.2,281.4a29.887,29.887,0,0,1,1.9,20c-.2.7-.4,1.5-.9,1.8-.7.4-1.5-.3-2.1-.9-4.3-4.6-11.5-14.5-11.7-22.3C150.9,266.9,161.2,275.2,164.2,281.4Z" fill="#3c505b"/>
            <path id="XMLID_394_" d="M139.5,311.6c1.3.9,2.7-.6,3.6-2a64.9,64.9,0,0,0,7.5-18.8C144.1,293.2,138.9,302.6,139.5,311.6Z" fill="#3c505b"/>
            <path id="XMLID_393_" d="M137.1,350.2c2.2.5,4.4-.7,6-2.6a26.45,26.45,0,0,0,4-6.7c1.9-3.9,4-8.2,4.1-13,0-.7-1.7-12.4-1.3-12.1,6.3,5,9.4,16.1,7.2,25.2a37.139,37.139,0,0,1-6.3-13.8c-3.7.7-6.6,3.5-9,7.3C139.5,338.2,138.2,345.5,137.1,350.2Z" fill="#3c505b"/>
            <path id="XMLID_392_" d="M149.9,358.6c4.9,6.6,7.2,16.4,6,25.4C151,378.7,148.8,366.5,149.9,358.6Z" fill="#3c505b"/>
            <path id="XMLID_391_" d="M137.1,405.8c3.3.5,5.9-3.2,7.7-6.8a75.8,75.8,0,0,0,5.9-15.7c-3.9-.2-7.6,3.5-10,7.5S138.4,401,137.1,405.8Z" fill="#3c505b"/>
            <path id="XMLID_390_" d="M162.3,452.1c.1-8.8-2.8-17.7-7.6-23.9-1.8-2.2-4-4.2-6.3-4.1-.1,3.6-.2,6.8.9,10.2a45.389,45.389,0,0,0,6.2,11.5C158,449.5,159.6,448.8,162.3,452.1Z" fill="#3c505b"/>
            <path id="XMLID_389_" d="M136.6,492.7c2.6-1.1,4.2-4.3,5.5-7.5a88.417,88.417,0,0,0,6-26.4C139.3,466.2,135.4,478.8,136.6,492.7Z" fill="#3c505b"/>
            <path id="XMLID_388_" d="M147.9,503.5a3.868,3.868,0,0,1,0,2.6,74.239,74.239,0,0,1-8.1,19.1c4-14.4,6.5-31,8.2-46.2C149.1,486.8,148.2,495.7,147.9,503.5Z" fill="#3c505b"/>
            <path id="XMLID_387_" d="M146.5,502.5a80.658,80.658,0,0,0,8.7,32.2c-1.2-25.1-3.3-50.2-6.3-75.1-.1-.5-.3-1-.1-1.4s.6.6.3.3Z" fill="#3c505b"/>
          </g>
          <g id="XMLID_259_">
            <g id="XMLID_278_">
              <path id="XMLID_279_" d="M296.5,627.1c2.9-205.6,3.4-414,1.5-619.2l4-.5c1.9,205.3,1.3,413.8-1.5,619.5Z" fill="#54805b"/>
            </g>
            <path id="XMLID_277_" d="M295.8,101.8c-.4,1.9-2.1,2.1-2.9.8-.8-1.4-.9-3.6-.8-5.6.5-8.7,4.2-15.9,7.7-22.4C299.8,83,297.6,93.7,295.8,101.8Z" fill="#54805b"/>
            <path id="XMLID_276_" d="M308.2,119.4c-.2-3.9.1-7.8.1-11.7s-.3-8-1.5-11.1-3.7-5-5.8-3.5C301.9,102,304.1,114.4,308.2,119.4Z" fill="#54805b"/>
            <path id="XMLID_281_" d="M306.9,82.6c-.2-3.9.1-7.8.1-11.7s-.3-8-1.5-11.1-3.7-5-5.8-3.5C300.6,65.1,302.8,77.5,306.9,82.6Z" fill="#54805b"/>
            <path id="XMLID_275_" d="M298.9,142.9c-1.5,1.5-3.4.6-5.1,1.7-1.9,1.3-3,4.8-3.9,8.1-1.4,5.2-2.8,10.7-2.4,16.3C294.6,165,298.1,155.7,298.9,142.9Z" fill="#54805b"/>
            <path id="XMLID_274_" d="M313.8,183.2c-1.6,2.3-4,1.5-5.4-.7-1.5-2.2-2.2-5.5-2.9-8.7a130.148,130.148,0,0,1-2.4-13c1.8,3.9,5,5.2,7.4,8.1C312.9,171.7,314.4,178,313.8,183.2Z" fill="#54805b"/>
            <path id="XMLID_280_" d="M313.1,147.2c-1.6,2.3-4,1.5-5.4-.7-1.5-2.2-2.2-5.5-2.9-8.7a130.148,130.148,0,0,1-2.4-13c1.8,3.9,5,5.2,7.4,8.1C312.2,135.7,313.7,142.1,313.1,147.2Z" fill="#54805b"/>
            <path id="XMLID_273_" d="M301.6,203.3c-2.1.4-4.2.7-6.2,2.1a11.685,11.685,0,0,0-4.4,7.7c-.6,3.6.6,7.9,2.7,8.4A38.557,38.557,0,0,0,301.6,203.3Z" fill="#54805b"/>
            <path id="XMLID_283_" d="M303,243.6c-2.1.4-4.2.7-6.2,2.1a11.685,11.685,0,0,0-4.4,7.7c-.6,3.6.6,7.9,2.7,8.4A38.557,38.557,0,0,0,303,243.6Z" fill="#54805b"/>
            <path id="XMLID_272_" d="M305.6,233.4c.3-6.9-1.4-13.7-4.4-17.8C300.6,222.2,302.5,230,305.6,233.4Z" fill="#54805b"/>
            <path id="XMLID_282_" d="M305.4,283.1c.3-6.9-1.4-13.7-4.4-17.8C300.4,272,302.3,279.8,305.4,283.1Z" fill="#54805b"/>
            <path id="XMLID_271_" d="M301.2,197.5c-2.4,6.4-5.9,11.5-9.9,14.5a155.134,155.134,0,0,0,6.2-19.6,39.764,39.764,0,0,0,1.4-13.7c-.6-4.4,1.5-8.2,2.6-12.5a159.639,159.639,0,0,0,7.2,37.6C305.9,202.8,302.8,201.2,301.2,197.5Z" fill="#54805b"/>
            <path id="XMLID_270_" d="M301.1,269.4c-1.1,7.7-2.5,16-5.9,21.4a155.626,155.626,0,0,0,4.6-33.8A98.106,98.106,0,0,0,301.1,269.4Z" fill="#54805b"/>
            <path id="XMLID_269_" d="M302.2,277c-.2-.2,0-.8.2-.8s.4.4.5.8c1.4,4.7,2.8,9.5,4,14.3,1.4,5.2,2.7,11.2,1.3,16.7l-6.9-14.1a11.985,11.985,0,0,1-1.4-4.4C299.8,287,301,278.7,302.2,277Z" fill="#54805b"/>
            <path id="XMLID_285_" d="M302.2,417.6c-.2-.2,0-.8.2-.8s.4.4.5.8c1.4,4.7,2.8,9.5,4,14.3,1.4,5.2,2.7,11.2,1.3,16.7l-6.9-14.1a11.985,11.985,0,0,1-1.4-4.4C299.8,427.6,301,419.4,302.2,417.6Z" fill="#54805b"/>
            <path id="XMLID_268_" d="M291.2,374.9a35.96,35.96,0,0,0-1.6,17.9,3.354,3.354,0,0,0,.6,1.6c.5.4,1-.2,1.5-.8,2.9-4.1,7.9-12.9,8.2-19.9C300.3,361.9,293.3,369.4,291.2,374.9Z" fill="#54805b"/>
            <path id="XMLID_267_" d="M308.5,328.8c-.9.8-1.8-.5-2.4-1.8a70.094,70.094,0,0,1-4.8-16.8C305.7,312.4,309.1,320.8,308.5,328.8Z" fill="#54805b"/>
            <path id="XMLID_266_" d="M309.2,368.2c-1.5.4-2.9-.7-4-2.3a25.267,25.267,0,0,1-2.6-6c-1.2-3.5-2.6-7.3-2.6-11.6,0-.6,1.3-11.1,1-10.8-4.3,4.5-6.6,14.3-5.2,22.4a39.7,39.7,0,0,0,4.4-12.3c2.5.6,4.4,3.1,5.9,6.5C307.8,357.5,308.6,364,309.2,368.2Z" fill="#54805b"/>
            <path id="XMLID_284_" d="M309.2,346.7c-1.5.4-2.9-.7-4-2.3a25.267,25.267,0,0,1-2.6-6c-1.2-3.5-2.6-7.3-2.6-11.6,0-.6,1.3-11.1,1-10.8-4.3,4.5-6.6,14.3-5.2,22.4a39.7,39.7,0,0,0,4.4-12.3c2.5.6,4.4,3.1,5.9,6.5C307.7,336,308.5,342.5,309.2,346.7Z" fill="#54805b"/>
            <path id="XMLID_265_" d="M300.5,375.7c-3.4,5.9-5.1,14.6-4.4,22.6C299.5,393.7,301.1,382.8,300.5,375.7Z" fill="#54805b"/>
            <path id="XMLID_264_" d="M308.5,417.8c-2.2.4-3.9-2.9-5.1-6.1a98.9,98.9,0,0,1-3.8-14c2.6-.2,5,3.1,6.6,6.7S307.6,413.5,308.5,417.8Z" fill="#54805b"/>
            <path id="XMLID_263_" d="M290.9,459.1c.1-7.9,2.1-15.8,5.5-21.3,1.2-2,2.7-3.7,4.3-3.6a34.3,34.3,0,0,1-.8,9.1,48.288,48.288,0,0,1-4.3,10.3C293.8,456.7,292.7,456.2,290.9,459.1Z" fill="#54805b"/>
            <path id="XMLID_262_" d="M307.6,495.3c-1.7-1-2.8-3.8-3.6-6.7a103.987,103.987,0,0,1-3.7-23.6C306.1,471.7,308.6,482.9,307.6,495.3Z" fill="#54805b"/>
            <path id="XMLID_286_" d="M306.9,396c-1.7-1-2.8-3.8-3.6-6.7a103.987,103.987,0,0,1-3.7-23.6C305.4,372.4,307.9,383.7,306.9,396Z" fill="#54805b"/>
            <path id="XMLID_261_" d="M299.8,504.9a3.93,3.93,0,0,0,0,2.4,82.578,82.578,0,0,0,5.1,17c-2.5-12.8-3.9-27.6-4.9-41.2C299.3,490,299.7,498,299.8,504.9Z" fill="#54805b"/>
            <path id="XMLID_260_" d="M300.8,504a90.556,90.556,0,0,1-6.3,28.7c1.2-22.4,2.9-44.8,5.3-67a5.7,5.7,0,0,0,.1-1.3c-.1-.4-.4.5-.2.3Z" fill="#54805b"/>
          </g>
          <g id="XMLID_287_">
            <g id="XMLID_313_">
              <path id="XMLID_314_" d="M367.3,672.8c-2.9-244.5-3.4-492.2-1.5-736.3l-4-.6c-1.9,244.2-1.3,492,1.5,736.6Z" fill="#3d5429"/>
            </g>
            <path id="XMLID_312_" d="M368,48.2c.4,2.3,2.1,2.6,2.9.9.8-1.6.9-4.3.8-6.7-.5-10.3-4.2-18.9-7.7-26.6C364.1,25.9,366.3,38.6,368,48.2Z" fill="#3d5429"/>
            <path id="XMLID_311_" d="M355.6,69.2c.2-4.6-.1-9.3-.1-13.9s.3-9.5,1.5-13.2,3.7-5.9,5.8-4.1C362,48.5,359.7,63.2,355.6,69.2Z" fill="#3d5429"/>
            <path id="XMLID_310_" d="M356.9,25.4c.2-4.6-.1-9.3-.1-13.9s.3-9.5,1.5-13.2,3.7-5.9,5.8-4.1C363.3,4.6,361,19.4,356.9,25.4Z" fill="#3d5429"/>
            <path id="XMLID_309_" d="M365,97.2c1.5,1.8,3.4.7,5.1,2,1.9,1.5,3,5.8,3.9,9.6,1.4,6.2,2.8,12.8,2.4,19.3C369.3,123.3,365.8,112.3,365,97.2Z" fill="#3d5429"/>
            <path id="XMLID_308_" d="M350.1,145c1.6,2.7,4,1.8,5.4-.9,1.5-2.6,2.2-6.6,2.9-10.4.9-5,1.9-10.1,2.4-15.4-1.8,4.7-5,6.2-7.4,9.6S349.5,138.9,350.1,145Z" fill="#3d5429"/>
            <path id="XMLID_307_" d="M350.7,102.2c1.6,2.7,4,1.8,5.4-.9,1.5-2.6,2.2-6.6,2.9-10.4.9-5,1.9-10.1,2.4-15.4-1.8,4.7-5,6.2-7.4,9.6C351.6,88.6,350.2,96.1,350.7,102.2Z" fill="#3d5429"/>
            <path id="XMLID_306_" d="M362.3,168.9c2.1.5,4.2.8,6.2,2.4s3.8,4.9,4.4,9.2-.6,9.4-2.7,10A48.319,48.319,0,0,1,362.3,168.9Z" fill="#3d5429"/>
            <path id="XMLID_305_" d="M360.8,216.8c2.1.5,4.2.8,6.2,2.4s3.8,4.9,4.4,9.2-.6,9.4-2.7,10A50.828,50.828,0,0,1,360.8,216.8Z" fill="#3d5429"/>
            <path id="XMLID_304_" d="M358.2,204.7c-.3-8.1,1.4-16.3,4.4-21.2C363.2,191.4,361.4,200.7,358.2,204.7Z" fill="#3d5429"/>
            <path id="XMLID_303_" d="M358.4,263.9c-.3-8.1,1.4-16.3,4.4-21.2C363.4,250.6,361.6,259.8,358.4,263.9Z" fill="#3d5429"/>
            <path id="XMLID_302_" d="M362.6,162.1c2.4,7.6,5.9,13.7,9.9,17.3a213.512,213.512,0,0,1-6.2-23.3,55.967,55.967,0,0,1-1.4-16.3c.6-5.2-1.5-9.7-2.6-14.8a220.962,220.962,0,0,1-7.2,44.7C357.9,168.4,361,166.5,362.6,162.1Z" fill="#3d5429"/>
            <path id="XMLID_301_" d="M362.8,247.5c1.1,9.2,2.5,19,5.9,25.4a217.8,217.8,0,0,1-4.6-40.1C363.8,237.1,363.4,243.4,362.8,247.5Z" fill="#3d5429"/>
            <path id="XMLID_300_" d="M361.7,256.5c.2-.2,0-1-.2-.9a1.525,1.525,0,0,0-.5.9c-1.4,5.6-2.8,11.3-4,17-1.4,6.2-2.7,13.3-1.3,19.8,2.3-5.6,4.6-11.1,6.9-16.7a15.852,15.852,0,0,0,1.4-5.2C364.1,268.4,362.8,258.6,361.7,256.5Z" fill="#3d5429"/>
            <path id="XMLID_299_" d="M361.7,423.8c.2-.2,0-1-.2-.9a1.525,1.525,0,0,0-.5.9c-1.4,5.6-2.8,11.3-4,17-1.4,6.2-2.7,13.3-1.3,19.8,2.3-5.6,4.6-11.1,6.9-16.7a15.852,15.852,0,0,0,1.4-5.2C364.1,435.7,362.8,425.9,361.7,423.8Z" fill="#3d5429"/>
            <path id="XMLID_298_" d="M373.1,324.2a50.177,50.177,0,0,1,1.6,21.2,3.849,3.849,0,0,1-.6,1.9c-.5.4-1-.3-1.5-1-2.9-4.9-7.9-15.3-8.2-23.6C363.9,308.8,371,317.6,373.1,324.2Z" fill="#3d5429"/>
            <path id="XMLID_297_" d="M355.3,318.2c.9,1,1.8-.6,2.4-2.2a95.087,95.087,0,0,0,4.8-19.9C358.2,298.7,354.8,308.7,355.3,318.2Z" fill="#3d5429"/>
            <path id="XMLID_294_" d="M363.3,373.9c3.4,7,5.1,17.4,4.4,26.9C364.4,395.3,362.7,382.3,363.3,373.9Z" fill="#3d5429"/>
            <path id="XMLID_293_" d="M355.4,424c2.2.5,3.9-3.4,5.1-7.2a132.128,132.128,0,0,0,3.8-16.7c-2.6-.2-5,3.7-6.6,8C356.1,412.3,356.2,418.9,355.4,424Z" fill="#3d5429"/>
            <path id="XMLID_292_" d="M373,473.1c-.1-9.4-2.1-18.8-5.5-25.4-1.2-2.4-2.7-4.4-4.3-4.3a47.817,47.817,0,0,0,.8,10.8,64.551,64.551,0,0,0,4.3,12.2C370,470.3,371.1,469.6,373,473.1Z" fill="#3d5429"/>
            <path id="XMLID_291_" d="M356.3,516.1c1.7-1.1,2.8-4.6,3.6-7.9a144.561,144.561,0,0,0,3.7-28C357.7,488,355.3,501.4,356.3,516.1Z" fill="#3d5429"/>
            <path id="XMLID_290_" d="M356.9,398.1c1.7-1.1,2.8-4.6,3.6-7.9a144.561,144.561,0,0,0,3.7-28C358.4,370,355.9,383.4,356.9,398.1Z" fill="#3d5429"/>
            <path id="XMLID_289_" d="M364,527.6a5.317,5.317,0,0,1,0,2.8,112.441,112.441,0,0,1-5.1,20.2c2.5-15.3,3.9-32.9,4.9-49C364.6,509.9,364.1,519.3,364,527.6Z" fill="#3d5429"/>
            <path id="XMLID_288_" d="M363.1,526.5a125.156,125.156,0,0,0,6.3,34.1c-1.2-26.6-2.9-53.2-5.3-79.6a8.084,8.084,0,0,1-.1-1.5c.1-.4.4.6.2.4Z" fill="#3d5429"/>
          </g>
          <g id="XMLID_295_">
            <g id="XMLID_337_">
              <path id="XMLID_338_" d="M423.3,685.6c2.9-244.5,3.4-492.2,1.5-736.3l4-.6c1.9,244.2,1.3,492-1.5,736.6Z" fill="#4c7246"/>
            </g>
            <path id="XMLID_336_" d="M422.6,61.1c-.4,2.3-2.1,2.6-2.9.9s-.9-4.3-.8-6.7c.5-10.3,4.2-18.9,7.7-26.6C426.6,38.7,424.4,51.4,422.6,61.1Z" fill="#4c7246"/>
            <path id="XMLID_335_" d="M435,82c-.2-4.6.1-9.3.1-13.9s-.3-9.5-1.5-13.2-3.7-5.9-5.8-4.1C428.7,61.3,430.9,76.1,435,82Z" fill="#4c7246"/>
            <path id="XMLID_334_" d="M433.7,38.2c-.2-4.6.1-9.3.1-13.9s-.3-9.5-1.5-13.2-3.7-5.9-5.8-4.1C427.4,17.4,429.6,32.2,433.7,38.2Z" fill="#4c7246"/>
            <path id="XMLID_333_" d="M425.7,110c-1.5,1.8-3.4.7-5.1,2-1.9,1.5-3,5.8-3.9,9.6-1.4,6.2-2.8,12.8-2.4,19.3C421.4,136.2,424.9,125.2,425.7,110Z" fill="#4c7246"/>
            <path id="XMLID_332_" d="M440.6,157.8c-1.6,2.7-4,1.8-5.4-.9-1.5-2.6-2.2-6.6-2.9-10.4-.9-5-1.9-10.1-2.4-15.4,1.8,4.7,5,6.2,7.4,9.6S441.2,151.7,440.6,157.8Z" fill="#4c7246"/>
            <path id="XMLID_331_" d="M439.9,115.1c-1.6,2.7-4,1.8-5.4-.9-1.5-2.6-2.2-6.6-2.9-10.4-.9-5-1.9-10.1-2.4-15.4,1.8,4.7,5,6.2,7.4,9.6S440.5,109,439.9,115.1Z" fill="#4c7246"/>
            <path id="XMLID_330_" d="M428.4,181.8c-2.1.5-4.2.8-6.2,2.4s-3.8,4.9-4.4,9.2.6,9.4,2.7,10A50.528,50.528,0,0,0,428.4,181.8Z" fill="#4c7246"/>
            <path id="XMLID_329_" d="M429.8,229.7c-2.1.5-4.2.8-6.2,2.4s-3.8,4.9-4.4,9.2.6,9.4,2.7,10A50.528,50.528,0,0,0,429.8,229.7Z" fill="#4c7246"/>
            <path id="XMLID_328_" d="M432.4,217.5c.3-8.1-1.4-16.3-4.4-21.2C427.4,204.3,429.3,213.5,432.4,217.5Z" fill="#4c7246"/>
            <path id="XMLID_327_" d="M432.2,276.7c.3-8.1-1.4-16.3-4.4-21.2C427.2,263.4,429,272.7,432.2,276.7Z" fill="#4c7246"/>
            <path id="XMLID_326_" d="M428,174.9c-2.4,7.6-5.9,13.7-9.9,17.3a213.512,213.512,0,0,0,6.2-23.3,55.967,55.967,0,0,0,1.4-16.3c-.6-5.2,1.5-9.7,2.6-14.8a220.962,220.962,0,0,0,7.2,44.7C432.7,181.2,429.6,179.3,428,174.9Z" fill="#4c7246"/>
            <path id="XMLID_325_" d="M427.9,260.4c-1.1,9.2-2.5,19-5.9,25.4a217.8,217.8,0,0,0,4.6-40.1A140.861,140.861,0,0,0,427.9,260.4Z" fill="#4c7246"/>
            <path id="XMLID_324_" d="M428.9,269.4c-.2-.2,0-1,.2-.9a1.525,1.525,0,0,1,.5.9c1.4,5.6,2.8,11.3,4,17,1.4,6.2,2.7,13.3,1.3,19.8-2.3-5.6-4.6-11.1-6.9-16.7a15.852,15.852,0,0,1-1.4-5.2C426.6,281.2,427.8,271.5,428.9,269.4Z" fill="#4c7246"/>
            <path id="XMLID_323_" d="M428.9,436.6c-.2-.2,0-1,.2-.9a1.525,1.525,0,0,1,.5.9c1.4,5.6,2.8,11.3,4,17,1.4,6.2,2.7,13.3,1.3,19.8-2.3-5.6-4.6-11.1-6.9-16.7a15.852,15.852,0,0,1-1.4-5.2C426.6,448.5,427.8,438.7,428.9,436.6Z" fill="#4c7246"/>
            <path id="XMLID_322_" d="M417.6,337.1a50.177,50.177,0,0,0-1.6,21.2,3.849,3.849,0,0,0,.6,1.9c.5.4,1-.3,1.5-1,2.9-4.9,7.9-15.3,8.2-23.6C426.7,321.6,419.7,330.5,417.6,337.1Z" fill="#4c7246"/>
            <path id="XMLID_321_" d="M435.3,331c-.9,1-1.8-.6-2.4-2.2a95.087,95.087,0,0,1-4.8-19.9C432.5,311.5,435.8,321.5,435.3,331Z" fill="#4c7246"/>
            <path id="XMLID_320_" d="M427.3,386.7c-3.4,7-5.1,17.4-4.4,26.9C426.3,408.1,427.9,395.2,427.3,386.7Z" fill="#4c7246"/>
            <path id="XMLID_319_" d="M435.3,436.8c-2.2.5-3.9-3.4-5.1-7.2a132.128,132.128,0,0,1-3.8-16.7c2.6-.2,5,3.7,6.6,8S434.4,431.7,435.3,436.8Z" fill="#4c7246"/>
            <path id="XMLID_318_" d="M417.6,486c.1-9.4,2.1-18.8,5.5-25.4,1.2-2.4,2.7-4.4,4.3-4.3a47.817,47.817,0,0,1-.8,10.8,64.551,64.551,0,0,1-4.3,12.2C420.6,483.1,419.5,482.5,417.6,486Z" fill="#4c7246"/>
            <path id="XMLID_317_" d="M434.4,528.9c-1.7-1.1-2.8-4.6-3.6-7.9a144.561,144.561,0,0,1-3.7-28C432.9,500.9,435.4,514.2,434.4,528.9Z" fill="#4c7246"/>
            <path id="XMLID_316_" d="M433.7,410.9c-1.7-1.1-2.8-4.6-3.6-7.9a144.561,144.561,0,0,1-3.7-28C432.2,382.9,434.7,396.2,433.7,410.9Z" fill="#4c7246"/>
            <path id="XMLID_315_" d="M426.6,540.4a5.317,5.317,0,0,0,0,2.8,112.441,112.441,0,0,0,5.1,20.2c-2.5-15.3-3.9-32.9-4.9-49C426,522.7,426.5,532.1,426.6,540.4Z" fill="#4c7246"/>
            <path id="XMLID_296_" d="M427.6,539.3a125.156,125.156,0,0,1-6.3,34.1c1.2-26.6,2.9-53.2,5.3-79.6a8.084,8.084,0,0,0,.1-1.5c-.1-.4-.4.6-.2.4Z" fill="#4c7246"/>
          </g>
          <g id="XMLID_339_">
            <g id="XMLID_363_">
              <path id="XMLID_364_" d="M445.2,734c2.9-244.5,3.4-492.2,1.5-736.3l4-.6c1.9,244.2,1.3,492-1.5,736.6Z" fill="#3d5429"/>
            </g>
            <path id="XMLID_362_" d="M444.5,109.4c-.4,2.3-2.1,2.6-2.9.9-.8-1.6-.9-4.3-.8-6.7.5-10.3,4.2-18.9,7.7-26.6C448.4,87.1,446.2,99.7,444.5,109.4Z" fill="#3d5429"/>
            <path id="XMLID_361_" d="M456.9,130.4c-.2-4.6.1-9.3.1-13.9s-.3-9.5-1.5-13.2-3.7-5.9-5.8-4.1C450.5,109.6,452.8,124.4,456.9,130.4Z" fill="#3d5429"/>
            <path id="XMLID_360_" d="M455.6,86.5c-.2-4.6.1-9.3.1-13.9s-.3-9.5-1.5-13.2-3.7-5.9-5.8-4.1C449.2,65.8,451.5,80.5,455.6,86.5Z" fill="#3d5429"/>
            <path id="XMLID_359_" d="M447.5,158.3c-1.5,1.8-3.4.7-5.1,2-1.9,1.5-3,5.8-3.9,9.6-1.4,6.2-2.8,12.8-2.4,19.3C443.2,184.5,446.7,173.5,447.5,158.3Z" fill="#3d5429"/>
            <path id="XMLID_358_" d="M462.4,206.1c-1.6,2.7-4,1.8-5.4-.9-1.5-2.6-2.2-6.6-2.9-10.4-.9-5-1.9-10.1-2.4-15.4,1.8,4.7,5,6.2,7.4,9.6S463,200,462.4,206.1Z" fill="#3d5429"/>
            <path id="XMLID_357_" d="M461.7,163.4c-1.6,2.7-4,1.8-5.4-.9-1.5-2.6-2.2-6.6-2.9-10.4-.9-5-1.9-10.1-2.4-15.4,1.8,4.7,5,6.2,7.4,9.6C460.9,149.7,462.3,157.3,461.7,163.4Z" fill="#3d5429"/>
            <path id="XMLID_356_" d="M450.2,230.1c-2.1.5-4.2.8-6.2,2.4s-3.8,4.9-4.4,9.2.6,9.4,2.7,10A49.257,49.257,0,0,0,450.2,230.1Z" fill="#3d5429"/>
            <path id="XMLID_355_" d="M451.6,278c-2.1.5-4.2.8-6.2,2.4s-3.8,4.9-4.4,9.2.6,9.4,2.7,10A49.257,49.257,0,0,0,451.6,278Z" fill="#3d5429"/>
            <path id="XMLID_354_" d="M454.3,265.9c.3-8.1-1.4-16.3-4.4-21.2C449.3,252.6,451.1,261.8,454.3,265.9Z" fill="#3d5429"/>
            <path id="XMLID_353_" d="M454.1,325c.3-8.1-1.4-16.3-4.4-21.2C449.1,311.7,450.9,321,454.1,325Z" fill="#3d5429"/>
            <path id="XMLID_352_" d="M449.8,223.2c-2.4,7.6-5.9,13.7-9.9,17.3a213.512,213.512,0,0,0,6.2-23.3,55.967,55.967,0,0,0,1.4-16.3c-.6-5.2,1.5-9.7,2.6-14.8a220.962,220.962,0,0,0,7.2,44.7C454.6,229.5,451.4,227.6,449.8,223.2Z" fill="#3d5429"/>
            <path id="XMLID_351_" d="M449.7,308.7c-1.1,9.2-2.5,19-5.9,25.4a217.8,217.8,0,0,0,4.6-40.1C448.7,298.3,449.1,304.6,449.7,308.7Z" fill="#3d5429"/>
            <path id="XMLID_350_" d="M450.8,317.7c-.2-.2,0-1,.2-.9a1.525,1.525,0,0,1,.5.9c1.4,5.6,2.8,11.3,4,17,1.4,6.2,2.7,13.3,1.3,19.8-2.3-5.6-4.6-11.1-6.9-16.7a15.852,15.852,0,0,1-1.4-5.2C448.4,329.6,449.6,319.8,450.8,317.7Z" fill="#3d5429"/>
            <path id="XMLID_349_" d="M450.8,484.9c-.2-.2,0-1,.2-.9a1.525,1.525,0,0,1,.5.9c1.4,5.6,2.8,11.3,4,17,1.4,6.2,2.7,13.3,1.3,19.8-2.3-5.6-4.6-11.1-6.9-16.7a15.852,15.852,0,0,1-1.4-5.2C448.4,496.8,449.6,487,450.8,484.9Z" fill="#3d5429"/>
            <path id="XMLID_348_" d="M439.4,385.4a50.177,50.177,0,0,0-1.6,21.2,3.849,3.849,0,0,0,.6,1.9c.5.4,1-.3,1.5-1,2.9-4.9,7.9-15.3,8.2-23.6C448.6,369.9,441.5,378.8,439.4,385.4Z" fill="#3d5429"/>
            <path id="XMLID_347_" d="M457.2,379.3c-.9,1-1.8-.6-2.4-2.2a95.087,95.087,0,0,1-4.8-19.9C454.3,359.8,457.7,369.8,457.2,379.3Z" fill="#3d5429"/>
            <path id="XMLID_346_" d="M449.2,435c-3.4,7-5.1,17.4-4.4,26.9C448.1,456.4,449.8,443.5,449.2,435Z" fill="#3d5429"/>
            <path id="XMLID_345_" d="M457.1,485.2c-2.2.5-3.9-3.4-5.1-7.2a132.128,132.128,0,0,1-3.8-16.7c2.6-.2,5,3.7,6.6,8C456.4,473.5,456.3,480,457.1,485.2Z" fill="#3d5429"/>
            <path id="XMLID_344_" d="M439.5,534.3c.1-9.4,2.1-18.8,5.5-25.4,1.2-2.4,2.7-4.4,4.3-4.3a47.818,47.818,0,0,1-.8,10.8,64.552,64.552,0,0,1-4.3,12.2C442.5,531.4,441.4,530.8,439.5,534.3Z" fill="#3d5429"/>
            <path id="XMLID_343_" d="M456.2,577.3c-1.7-1.1-2.8-4.6-3.6-7.9a144.561,144.561,0,0,1-3.7-28C454.8,549.2,457.2,562.5,456.2,577.3Z" fill="#3d5429"/>
            <path id="XMLID_342_" d="M455.6,459.3c-1.7-1.1-2.8-4.6-3.6-7.9a144.561,144.561,0,0,1-3.7-28C454.1,431.2,456.6,444.5,455.6,459.3Z" fill="#3d5429"/>
            <path id="XMLID_341_" d="M448.5,588.7a5.317,5.317,0,0,0,0,2.8,112.441,112.441,0,0,0,5.1,20.2c-2.5-15.3-3.9-32.9-4.9-49C447.9,571,448.4,580.5,448.5,588.7Z" fill="#3d5429"/>
            <path id="XMLID_340_" d="M449.4,587.6a125.156,125.156,0,0,1-6.3,34.1c1.2-26.6,2.9-53.2,5.3-79.6a8.083,8.083,0,0,0,.1-1.5c-.1-.4-.4.6-.2.4Z" fill="#3d5429"/>
          </g>
        </g>
        <g id="XMLID_116_2" data-name="XMLID_116_" transform="translate(-370.001 179)">
          <path id="XMLID_117_2" data-name="XMLID_117_" d="M-32.8,732.233V697.4c4-3.7,14-5.9,16.4-.8a3.007,3.007,0,0,1,1.8-2c4.8-2.3,9.9,2.1,13.7,6.2,5.3,5.8,10.7,11.6,16,17.4A25,25,0,0,1,10,699.8a61.107,61.107,0,0,1,10,10.9,41.686,41.686,0,0,1,.7-11.7,4.817,4.817,0,0,1,1.5-3.1c2.5-1.9,5.1,2.2,5.9,5.4.9,3.7,1.8,7.5,2.8,11.2a12.346,12.346,0,0,1,4.5-8.5,23.507,23.507,0,0,1,2.1,13.1c3.3-1.2,4.2-5.6,5-9.2.8-3.7,3-8,6.4-7.5-.2,3.8-.3,7.6-.5,11.4a41.15,41.15,0,0,1,9.1-15.2c1.8-1.9,4.8-3.5,6.3-1.4a4.883,4.883,0,0,1,.6,3.4,23.274,23.274,0,0,1-4.6,12c3.4-.6,6.4-2.9,9.5-4.7s6.9-3.1,10-1.4,4.1,7.5,1,9.2c3.3-2.9,6.9-5.9,11.1-6.4s9.1,2.5,9.2,7.2c.6-3,1.2-6.1,1.8-9.1a5.848,5.848,0,0,1,1-2.7c1-1.1,2.6-1,4-.6,7,2.5,8.7,12.6,14.3,17.9-.7-2.7-1.4-5.6-.9-8.3.6-2.8,2.8-5.3,5.4-4.9,3.9.6,4.6,6.3,4.4,10.6,2.5-1,3.1-5.1,5.6-6.2,2.2-1,4.8.8,5.7,3.3s.6,5.2.2,7.8a26.424,26.424,0,0,1,10.4-11.5,4.2,4.2,0,0,1,2.6-.8c1.8.2,3,2.3,3,4.2a13.57,13.57,0,0,1-1.7,5.5,35.665,35.665,0,0,1,12.1-10.8c1-.6,2.3-1.1,3.3-.4,1.2.7,1.3,2.5,1.1,3.9a22.606,22.606,0,0,1-3.4,9.5,37.089,37.089,0,0,1,15.9.6,32.308,32.308,0,0,1-5-15.5,3.574,3.574,0,0,1,.5-2.3c.8-.9,2.2-.2,3.2.5a45.063,45.063,0,0,1,8.5,8.4c-.4-3.7-.5-8.2,2.2-10.3,2.5-1.9,6.1-.8,8.1,1.6,2.1,2.4,3,5.7,3.8,8.8.7-2.5,1.5-5.1,3.2-6.9,1.7-1.9,4.5-2.8,6.5-1.4,2.4,1.7,2.4,5.5,2.1,8.6a21.739,21.739,0,0,1,4.9-5.9c2-1.5,4.8-2,6.9-.6s2.8,5,1,6.8c2.8-3.4,5.7-6.8,9.6-8.6s8.7-1.6,11.6,1.7a8.809,8.809,0,0,1,11,1.3c-.5-3.4.3-8.3,3.4-8a4.875,4.875,0,0,1,2.5,1.4c2.7,2.3,5.3,4.7,7.9,7.2a53.559,53.559,0,0,1-1.1-13.3,35.8,35.8,0,0,1,11.5,11.1c.5-2.5.1-5.2.6-7.7s2.3-5.2,4.7-4.9c4.2.5,3.5,8,6.4,11.3,1.6-2.5,3.2-5.1,5.6-6.7s5.7-1.9,7.8,0c2.1,2,1.9,6.5-.7,7.5a7.305,7.305,0,0,1,8.5-2.7,8.489,8.489,0,0,1,4.9,8.1c5-2.9,10.9-2.4,16.1.2a27.73,27.73,0,0,1-2.9-14.2,19.139,19.139,0,0,1,11.5,6.8c-.5-2.8-1-5.7-.3-8.4s3.2-5.1,5.7-4.6c4,.8,4.4,7,6.9,10.4a15.915,15.915,0,0,1,8-9.2,17.954,17.954,0,0,1,1,7.6,57.348,57.348,0,0,1,15.9-11c1.6-.7,3.4-1.3,4.9-.5,2.7,1.6,1.8,6,.5,9.1a36.719,36.719,0,0,1,9.3-6.4c1.2-.6,2.6-1.1,3.8-.6,3.5,1.4,1,7.5,2.3,11.3,0-3.8,4.2-6.4,7.6-5.5s5.8,4.2,7.3,7.7a46.1,46.1,0,0,1,2.5-9.7,60.488,60.488,0,0,1,10.1,11.3c2.3-.7.4-4.5.7-7,.4-3.1,4.6-3.9,6.8-2s3,5.2,3.5,8.3c.5-2.9,1.1-5.7,1.7-8.6.2-1.1.6-2.4,1.6-2.8,1.3-.5,2.5.8,3.3,2,1.7,2.4,3.4,4.9,5.1,7.3.5-3.1,1.1-6.3,2.7-8.9s4.4-4.6,7.2-4.1,4.9,4.4,3.4,7a24.356,24.356,0,0,1,11.2-8.4,13.8,13.8,0,0,1-.1,7.8c2.7-2.6,5.6-5.3,9.1-5.8s7.7,2.4,7.3,6.3c4.2-2.3,9.3-1.2,13.8.2a22.686,22.686,0,0,1-2.5-10.9,3.558,3.558,0,0,1,.9-2.7,2.812,2.812,0,0,1,2.8.1,19.991,19.991,0,0,1,6.7,4.9,31.024,31.024,0,0,1,1-10.5,6.19,6.19,0,0,1,1.3-2.7c1.9-1.8,5-.2,6.3,2.2,1.3,2.3,1.8,5.2,3.3,7.4a9.984,9.984,0,0,1,6-6.2c.7-.2,1.5-.4,2,.2a2.73,2.73,0,0,1,.5,1.8c.1,2.6.3,5.1.4,7.7,1.8-2.5,3.6-5.1,6-6.8s5.6-2.5,8.2-1.1,4.1,5.3,2.4,8c1.7-1.4,2.9-3.3,4.5-4.8s3.9-2.5,5.8-1.6,2.5,4.5.6,5.5c5.2-4.4,13.7-2.7,17.2,3.5,2.4-3.2,7-5.6,10.7-6.3s8.1,2.9,6.9,6.8l-2.81,40.133Z" fill="#758406"/>
          <path id="XMLID_118_2" data-name="XMLID_118_" d="M160,704.7a25.3,25.3,0,0,0,0-15.4c-.8-2.4-2-4.7-1.8-7.2a14.1,14.1,0,0,1,7.3,10C166.4,696.6,162.7,701.1,160,704.7Z" fill="#768d18"/>
          <path id="XMLID_119_2" data-name="XMLID_119_" d="M137.2,706.3a54.41,54.41,0,0,1-3-6.5,9.548,9.548,0,0,1-.9-3.6,5.347,5.347,0,0,1,3.4-5C139.3,695.5,139.8,701.9,137.2,706.3Z" fill="#768d18"/>
          <path id="XMLID_120_2" data-name="XMLID_120_" d="M73.9,693.6a25.962,25.962,0,0,1-8.4-4.4c-2.4-2.2-4.2-5.6-3.6-8.9a29.6,29.6,0,0,1,7.9,5.3C72.2,688,74.1,690.1,73.9,693.6Z" fill="#768d18"/>
          <path id="XMLID_121_2" data-name="XMLID_121_" d="M78.8,694.4a64.749,64.749,0,0,1-2.2-43C80.4,664.4,79.7,680.8,78.8,694.4Z" fill="#768d18"/>
          <path id="XMLID_122_2" data-name="XMLID_122_" d="M27.5,688.5c-6-10.4-5.4-24.8,1.4-34.6C30.6,664.6,30.4,678.2,27.5,688.5Z" fill="#768d18"/>
          <path id="XMLID_123_2" data-name="XMLID_123_" d="M12.1,693.2a14.912,14.912,0,0,1-1.7-5.9,35.237,35.237,0,0,1-.5-8.6,11.889,11.889,0,0,1,3.4-7.5A33.81,33.81,0,0,1,12.1,693.2Z" fill="#768d18"/>
          <path id="XMLID_124_2" data-name="XMLID_124_" d="M39.4,686.1c-2.9-9.1-.2-20,6.6-26.2C46,668.9,44.5,678.9,39.4,686.1Z" fill="#768d18"/>
          <path id="XMLID_125_2" data-name="XMLID_125_" d="M2.6,696.4a12.234,12.234,0,0,1-8.9-6.8,13.917,13.917,0,0,1,0-11.8C-2.6,684.4.5,689,2.6,696.4Z" fill="#768d18"/>
          <path id="XMLID_126_2" data-name="XMLID_126_" d="M190.2,684.4a12.878,12.878,0,0,0-8.7,6.6,14.842,14.842,0,0,0-.8,11.5A89.045,89.045,0,0,0,190.2,684.4Z" fill="#768d18"/>
          <path id="XMLID_127_2" data-name="XMLID_127_" d="M325.1,700.2a64.109,64.109,0,0,1-4-6.1c-1.4-2.4-2.7-5.1-2.6-7.9.1-4.3,3.2-7.7,6.1-10.6A168.431,168.431,0,0,1,325.1,700.2Z" fill="#768d18"/>
          <path id="XMLID_128_2" data-name="XMLID_128_" d="M429.9,676.7c-8.2,1.6-15.3,8.6-17.5,17.4a12.574,12.574,0,0,0,6.9-3C424.5,686.9,427.1,683.1,429.9,676.7Z" fill="#768d18"/>
          <path id="XMLID_129_2" data-name="XMLID_129_" d="M454.2,692c-1.5.2-2.4-1.6-3-3.1-1-2.9-2-6-1.6-9.1s2.7-6.1,5.5-6.1C456.6,679.3,455.8,686.5,454.2,692Z" fill="#768d18"/>
          <path id="XMLID_130_2" data-name="XMLID_130_" d="M500.7,689.8a21.185,21.185,0,0,1-.5-4.4c-.1-4.1-.1-8.5,1.9-11.9,1.5-2.5,3.8-4.1,6.1-5.6a87.413,87.413,0,0,1-4.4,16.7C503.1,686.9,502.9,689,500.7,689.8Z" fill="#768d18"/>
          <path id="XMLID_131_2" data-name="XMLID_131_" d="M562.2,660.1c-7.5,2.6-13.7,9.4-16,17.6a20.936,20.936,0,0,0,10.1-6.8A62.775,62.775,0,0,0,562.2,660.1Z" fill="#768d18"/>
          <path id="XMLID_132_2" data-name="XMLID_132_" d="M588.6,658.4c-10.5,1.5-19.8,10.3-22.5,21.5,5.4-.8,9.5-4.5,13.4-8.7A77.934,77.934,0,0,0,588.6,658.4Z" fill="#768d18"/>
          <path id="XMLID_133_2" data-name="XMLID_133_" d="M535.9,675.5a21.023,21.023,0,0,0-8.7-17.1c.7,3.3.7,6.8,2.1,9.8A14.343,14.343,0,0,0,535.9,675.5Z" fill="#768d18"/>
        </g>
        <g id="XMLID_116_3" data-name="XMLID_116_" transform="translate(267 179)">
          <path id="XMLID_117_3" data-name="XMLID_117_" d="M-28.035,731.621-32.8,697.4c4-3.7,14-5.9,16.4-.8a3.007,3.007,0,0,1,1.8-2c4.8-2.3,9.9,2.1,13.7,6.2,5.3,5.8,10.7,11.6,16,17.4A25,25,0,0,1,10,699.8a61.107,61.107,0,0,1,10,10.9,41.686,41.686,0,0,1,.7-11.7,4.817,4.817,0,0,1,1.5-3.1c2.5-1.9,5.1,2.2,5.9,5.4.9,3.7,1.8,7.5,2.8,11.2a12.346,12.346,0,0,1,4.5-8.5,23.507,23.507,0,0,1,2.1,13.1c3.3-1.2,4.2-5.6,5-9.2.8-3.7,3-8,6.4-7.5-.2,3.8-.3,7.6-.5,11.4a41.15,41.15,0,0,1,9.1-15.2c1.8-1.9,4.8-3.5,6.3-1.4a4.883,4.883,0,0,1,.6,3.4,23.274,23.274,0,0,1-4.6,12c3.4-.6,6.4-2.9,9.5-4.7s6.9-3.1,10-1.4,4.1,7.5,1,9.2c3.3-2.9,6.9-5.9,11.1-6.4s9.1,2.5,9.2,7.2c.6-3,1.2-6.1,1.8-9.1a5.848,5.848,0,0,1,1-2.7c1-1.1,2.6-1,4-.6,7,2.5,8.7,12.6,14.3,17.9-.7-2.7-1.4-5.6-.9-8.3.6-2.8,2.8-5.3,5.4-4.9,3.9.6,4.6,6.3,4.4,10.6,2.5-1,3.1-5.1,5.6-6.2,2.2-1,4.8.8,5.7,3.3s.6,5.2.2,7.8a26.424,26.424,0,0,1,10.4-11.5,4.2,4.2,0,0,1,2.6-.8c1.8.2,3,2.3,3,4.2a13.57,13.57,0,0,1-1.7,5.5,35.665,35.665,0,0,1,12.1-10.8c1-.6,2.3-1.1,3.3-.4,1.2.7,1.3,2.5,1.1,3.9a22.606,22.606,0,0,1-3.4,9.5,37.089,37.089,0,0,1,15.9.6,32.308,32.308,0,0,1-5-15.5,3.574,3.574,0,0,1,.5-2.3c.8-.9,2.2-.2,3.2.5a45.063,45.063,0,0,1,8.5,8.4c-.4-3.7-.5-8.2,2.2-10.3,2.5-1.9,6.1-.8,8.1,1.6,2.1,2.4,3,5.7,3.8,8.8.7-2.5,1.5-5.1,3.2-6.9,1.7-1.9,4.5-2.8,6.5-1.4,2.4,1.7,2.4,5.5,2.1,8.6a21.739,21.739,0,0,1,4.9-5.9c2-1.5,4.8-2,6.9-.6s2.8,5,1,6.8c2.8-3.4,5.7-6.8,9.6-8.6s8.7-1.6,11.6,1.7a8.809,8.809,0,0,1,11,1.3c-.5-3.4.3-8.3,3.4-8a4.875,4.875,0,0,1,2.5,1.4c2.7,2.3,5.3,4.7,7.9,7.2a53.559,53.559,0,0,1-1.1-13.3,35.8,35.8,0,0,1,11.5,11.1c.5-2.5.1-5.2.6-7.7s2.3-5.2,4.7-4.9c4.2.5,3.5,8,6.4,11.3,1.6-2.5,3.2-5.1,5.6-6.7s5.7-1.9,7.8,0c2.1,2,1.9,6.5-.7,7.5a7.305,7.305,0,0,1,8.5-2.7,8.489,8.489,0,0,1,4.9,8.1c5-2.9,10.9-2.4,16.1.2a27.73,27.73,0,0,1-2.9-14.2,19.139,19.139,0,0,1,11.5,6.8c-.5-2.8-1-5.7-.3-8.4s3.2-5.1,5.7-4.6c4,.8,4.4,7,6.9,10.4a15.915,15.915,0,0,1,8-9.2,17.954,17.954,0,0,1,1,7.6,57.348,57.348,0,0,1,15.9-11c1.6-.7,3.4-1.3,4.9-.5,2.7,1.6,1.8,6,.5,9.1a36.719,36.719,0,0,1,9.3-6.4c1.2-.6,2.6-1.1,3.8-.6,3.5,1.4,1,7.5,2.3,11.3,0-3.8,4.2-6.4,7.6-5.5s5.8,4.2,7.3,7.7a46.1,46.1,0,0,1,2.5-9.7,60.488,60.488,0,0,1,10.1,11.3c2.3-.7.4-4.5.7-7,.4-3.1,4.6-3.9,6.8-2s3,5.2,3.5,8.3c.5-2.9,1.1-5.7,1.7-8.6.2-1.1.6-2.4,1.6-2.8,1.3-.5,2.5.8,3.3,2,1.7,2.4,3.4,4.9,5.1,7.3.5-3.1,1.1-6.3,2.7-8.9s4.4-4.6,7.2-4.1,4.9,4.4,3.4,7a24.356,24.356,0,0,1,11.2-8.4,13.8,13.8,0,0,1-.1,7.8c2.7-2.6,5.6-5.3,9.1-5.8s7.7,2.4,7.3,6.3c4.2-2.3,9.3-1.2,13.8.2a22.686,22.686,0,0,1-2.5-10.9,3.558,3.558,0,0,1,.9-2.7,2.812,2.812,0,0,1,2.8.1,19.991,19.991,0,0,1,6.7,4.9,31.024,31.024,0,0,1,1-10.5,6.19,6.19,0,0,1,1.3-2.7c1.9-1.8,5-.2,6.3,2.2,1.3,2.3,1.8,5.2,3.3,7.4a9.984,9.984,0,0,1,6-6.2c.7-.2,1.5-.4,2,.2a2.73,2.73,0,0,1,.5,1.8c.1,2.6.3,5.1.4,7.7,1.8-2.5,3.6-5.1,6-6.8s5.6-2.5,8.2-1.1,4.1,5.3,2.4,8c1.7-1.4,2.9-3.3,4.5-4.8s3.9-2.5,5.8-1.6,2.5,4.5.6,5.5c5.2-4.4,13.7-2.7,17.2,3.5,2.4-3.2,7-5.6,10.7-6.3s8.1,2.9,6.9,6.8l-4.265,39.521Z" transform="translate(-9)" fill="#758406"/>
          <path id="XMLID_118_3" data-name="XMLID_118_" d="M160,704.7a25.3,25.3,0,0,0,0-15.4c-.8-2.4-2-4.7-1.8-7.2a14.1,14.1,0,0,1,7.3,10C166.4,696.6,162.7,701.1,160,704.7Z" fill="#768d18"/>
          <path id="XMLID_119_3" data-name="XMLID_119_" d="M137.2,706.3a54.41,54.41,0,0,1-3-6.5,9.548,9.548,0,0,1-.9-3.6,5.347,5.347,0,0,1,3.4-5C139.3,695.5,139.8,701.9,137.2,706.3Z" fill="#768d18"/>
          <path id="XMLID_120_3" data-name="XMLID_120_" d="M73.9,693.6a25.962,25.962,0,0,1-8.4-4.4c-2.4-2.2-4.2-5.6-3.6-8.9a29.6,29.6,0,0,1,7.9,5.3C72.2,688,74.1,690.1,73.9,693.6Z" fill="#768d18"/>
          <path id="XMLID_121_3" data-name="XMLID_121_" d="M78.8,694.4a64.749,64.749,0,0,1-2.2-43C80.4,664.4,79.7,680.8,78.8,694.4Z" fill="#768d18"/>
          <path id="XMLID_122_3" data-name="XMLID_122_" d="M27.5,688.5c-6-10.4-5.4-24.8,1.4-34.6C30.6,664.6,30.4,678.2,27.5,688.5Z" fill="#768d18"/>
          <path id="XMLID_123_3" data-name="XMLID_123_" d="M12.1,693.2a14.912,14.912,0,0,1-1.7-5.9,35.237,35.237,0,0,1-.5-8.6,11.889,11.889,0,0,1,3.4-7.5A33.81,33.81,0,0,1,12.1,693.2Z" fill="#768d18"/>
          <path id="XMLID_124_3" data-name="XMLID_124_" d="M39.4,686.1c-2.9-9.1-.2-20,6.6-26.2C46,668.9,44.5,678.9,39.4,686.1Z" fill="#768d18"/>
          <path id="XMLID_125_3" data-name="XMLID_125_" d="M2.6,696.4a12.234,12.234,0,0,1-8.9-6.8,13.917,13.917,0,0,1,0-11.8C-2.6,684.4.5,689,2.6,696.4Z" fill="#768d18"/>
          <path id="XMLID_126_3" data-name="XMLID_126_" d="M190.2,684.4a12.878,12.878,0,0,0-8.7,6.6,14.842,14.842,0,0,0-.8,11.5A89.045,89.045,0,0,0,190.2,684.4Z" fill="#768d18"/>
          <path id="XMLID_127_3" data-name="XMLID_127_" d="M325.1,700.2a64.109,64.109,0,0,1-4-6.1c-1.4-2.4-2.7-5.1-2.6-7.9.1-4.3,3.2-7.7,6.1-10.6A168.431,168.431,0,0,1,325.1,700.2Z" fill="#768d18"/>
          <path id="XMLID_128_3" data-name="XMLID_128_" d="M429.9,676.7c-8.2,1.6-15.3,8.6-17.5,17.4a12.574,12.574,0,0,0,6.9-3C424.5,686.9,427.1,683.1,429.9,676.7Z" fill="#768d18"/>
          <path id="XMLID_129_3" data-name="XMLID_129_" d="M454.2,692c-1.5.2-2.4-1.6-3-3.1-1-2.9-2-6-1.6-9.1s2.7-6.1,5.5-6.1C456.6,679.3,455.8,686.5,454.2,692Z" fill="#768d18"/>
          <path id="XMLID_130_3" data-name="XMLID_130_" d="M500.7,689.8a21.185,21.185,0,0,1-.5-4.4c-.1-4.1-.1-8.5,1.9-11.9,1.5-2.5,3.8-4.1,6.1-5.6a87.413,87.413,0,0,1-4.4,16.7C503.1,686.9,502.9,689,500.7,689.8Z" fill="#768d18"/>
          <path id="XMLID_131_3" data-name="XMLID_131_" d="M562.2,660.1c-7.5,2.6-13.7,9.4-16,17.6a20.936,20.936,0,0,0,10.1-6.8A62.775,62.775,0,0,0,562.2,660.1Z" fill="#768d18"/>
          <path id="XMLID_132_3" data-name="XMLID_132_" d="M588.6,658.4c-10.5,1.5-19.8,10.3-22.5,21.5,5.4-.8,9.5-4.5,13.4-8.7A77.934,77.934,0,0,0,588.6,658.4Z" fill="#768d18"/>
          <path id="XMLID_133_3" data-name="XMLID_133_" d="M535.9,675.5a21.023,21.023,0,0,0-8.7-17.1c.7,3.3.7,6.8,2.1,9.8A14.343,14.343,0,0,0,535.9,675.5Z" fill="#768d18"/>
        </g>
      </g>
    </g>
    <g id="XMLID_513_2" data-name="XMLID_513_" transform="translate(257 314.691)">
      <g id="Group_7" data-name="Group 7">
        <g id="XMLID_4_">
          <path id="XMLID_46_" d="M107,711.5a61.578,61.578,0,0,1-7.2,17.4,39.58,39.58,0,0,0,4.3,5.6,13.643,13.643,0,0,0,5.4,3.8c2.1.7,4.6.6,6.2-.9a10.32,10.32,0,0,0,2.5-5l3.9-14.4Z" fill="#f4b795"/>
          <path id="XMLID_51_" d="M246.7,724.3a70.343,70.343,0,0,0-9.1-16c.9-2.1,2.8-3.3,4.7-4.5A58.326,58.326,0,0,1,252,699c2.3,5.8,4.9,11.8,7.4,17.6-1,2.4-3.2,3.7-5.2,5.3a5.93,5.93,0,0,1-2,1.2C250.8,723.5,247.7,723.3,246.7,724.3Z" fill="#f4b795"/>
          <g id="XMLID_38_">
            <path id="XMLID_64_" d="M139.2,608.3c-4.7,9.8-10.5,19.1-15.9,28.6a382.73,382.73,0,0,0-31.2,70.9c6.5,5.1,14.5,8.2,22,11.8,6.1,2.8,12.2,5.7,18.7,7.3A321.607,321.607,0,0,0,151.5,691c3.6-8.1,6.7-16.4,9.7-24.7,5.6-15.6,11.3-31.3,16.9-46.9a284.079,284.079,0,0,0-27.4-46.7A137.294,137.294,0,0,1,139.2,608.3Z" fill="#f36700"/>
            <path id="XMLID_876_" d="M153.4,547.3a143.857,143.857,0,0,1-2.5,25.4,287.03,287.03,0,0,1,27.4,46.7l10.2-28.2Z" fill="#a4462e"/>
          </g>
          <path id="XMLID_37_" d="M216.2,726.8c14.9-4.8,26-19.6,41.3-22.8q-11.55-46.5-23.1-92.9a98.631,98.631,0,0,0-3.9-13.1,98.543,98.543,0,0,0-5.1-10.3c-9.6-17.6-18.9-35.9-31.2-51.7a146.554,146.554,0,0,0,1.4-35.6c-7.1-5.9-15.1-10.2-24.3-11.9s-18.5-1.8-27.8-1.8a261.2,261.2,0,0,1-1.3,26.5c-2.2,2-5,4-7.2,5.9.3,6.1,2.4,11.3,4.9,16.9a284.231,284.231,0,0,0,27.3,48c4.4,6.2,9.1,12.3,12.1,19.4,3.2,7.6,4.3,16,5.7,24.1C190.8,660.7,204,695.3,216.2,726.8Z" fill="#f36700"/>
          <g id="XMLID_922_">
            <path id="XMLID_924_" d="M177,515.4a14.473,14.473,0,0,0-5.4-1.1,123.076,123.076,0,0,0-13.6-.2,43.623,43.623,0,0,0,11.8,6.8c2.6,1,5.4,1.8,8,2.9,5.8,2.4,12.9,7,16.3,12.2.6-3.8,1.1-7.6,1.4-11.4a19.277,19.277,0,0,1-12.6-4.3C181,518.6,179.4,516.5,177,515.4Z" fill="#a4462e"/>
          </g>
          <path id="XMLID_949_" d="M195.6,500.3c-7.1-5.9-15.1-10.2-24.3-11.9-9.1-1.7-18.5-1.8-27.8-1.8,0,5.6-.2,11.2-.5,16.8,16,7.9,35.1,8.7,53.1,9.9C196.1,509,196,504.6,195.6,500.3Z" fill="#a4462e"/>
          <path id="XMLID_36_" d="M152.8,510c9.7-.5,19.1-2.9,28.5-5.3,5.9-1.5,12-3.1,16.5-7.2a56.531,56.531,0,0,1-.1,9.2c-5.2,2.2-10.5,4.1-15.7,6.3a126.59,126.59,0,0,1-16.9,6.2,64.839,64.839,0,0,1-10.7,1.9Z" fill="#663012"/>
          <path id="XMLID_62_" d="M144.2,528.4c-6.9,3.3-14.5,5.7-22.2,5.5s-15.6-3-20.7-8.7a7.28,7.28,0,0,1-1.7-2.8,10.22,10.22,0,0,1-.1-3.5c3.4-32.1,7.5-64.2,12.2-96.1.9-6.2,6.8-9.8,12.2-12.9s12.1-4.4,18.1-2.7c7.7,2.2,13.3,9.1,15.9,16.7,2.6,7.5,2.7,15.7,2.4,23.7-1,25.3-5.5,50.3-11.7,74.8C147.9,524.7,146.2,527.5,144.2,528.4Z" fill="#344759"/>
          <path id="XMLID_63_" d="M153.6,454.6c-3.8,4-9.7,5.2-15.2,5.9-10.7,1.4-23.2,3.6-33.5-.5-.2,4.6-.5,8.1-.7,12.6,14.7,3.1,30.1,3.2,44.7-.7Z" fill="#516882"/>
          <path id="XMLID_57_" d="M113.3,434.2a12.685,12.685,0,0,0,2.2,6.6c3.2,4.4,9.7,4.7,15,3.4a24.411,24.411,0,0,0,8.6-3.7c5.2-3.8,8.1-10.1,9.2-16.5.7-4,.7-8.6-2.1-11.7a11.832,11.832,0,0,0-6-3.3C123.5,404.2,111.6,417.9,113.3,434.2Z" fill="#ebbc0a"/>
          <path id="XMLID_58_" d="M126.9,406.5c2,0,4.5,1.5,6.5,1.9,1,.2,2,.3,3,.6a14.762,14.762,0,0,1,2.7,1.6c3.6,2.7,7.6,6.2,9.2,10.4l8.8,2.9L169.6,410C148.4,401.8,126.9,406.5,126.9,406.5Z" fill="#516882"/>
          <path id="XMLID_56_" d="M136.7,407.7c-3.1-1-6.5-1.8-9.8-1.2-6.4,1.1-11,6.5-14.7,11.8-4.8,6.9-9.1,14.5-9.5,22.9,0,1.1.3,2.6,1.4,2.7,1.1.2,1.8-1,2.2-2a165.484,165.484,0,0,1,10.1-20.2c2.9-5,6.8-10.4,12.6-11.3,3.5-.6,7.1.8,10.1,2.8a44.948,44.948,0,0,1,7.6,7.5c1.2,1.4,2.4,2.9,3.7,4.2C157.7,418.6,140.9,409.1,136.7,407.7Z" fill="#839cb5"/>
          <g id="XMLID_20_">
            <g id="XMLID_987_">
              <g id="XMLID_992_">
                <path id="XMLID_993_" d="M128.2,439a10.461,10.461,0,0,1-5.7-1.6c-6-3.6-5.8-9.5-3.7-13.7,2.9-5.9,10-10.3,16.9-7.6a8.968,8.968,0,0,1,5.9,8h-1c0-2.9-2.2-5.8-5.3-7-6.2-2.4-12.9,1.8-15.6,7.2-2.5,5-1.2,9.7,3.4,12.4a10.248,10.248,0,0,0,8.4.9l.3,1A20.876,20.876,0,0,1,128.2,439Z" fill="#eb8c02"/>
              </g>
              <g id="XMLID_990_">
                <path id="XMLID_991_" d="M129.7,435.2a3.564,3.564,0,0,0-1.9-1.1c-.3-.1-.5-.2-.8-.3a5.524,5.524,0,0,1-3.6-6.8c.9-3.7,4.6-7.5,8.8-7.1a6.181,6.181,0,0,1,4.6,2.8,4.831,4.831,0,0,1,.7,4.3l-1-.3a4.126,4.126,0,0,0-.6-3.5,5.82,5.82,0,0,0-3.9-2.4c-3.6-.3-7,3.1-7.7,6.3a4.619,4.619,0,0,0,3,5.7,1.854,1.854,0,0,0,.7.2,4.122,4.122,0,0,1,2.4,1.5Z" fill="#eb8c02"/>
              </g>
              <g id="XMLID_988_">
                <path id="XMLID_989_" d="M133.3,433.6a7.147,7.147,0,0,1-6.7-5.6,6.045,6.045,0,0,1,0-1.9,3.5,3.5,0,0,1,2.1-2.5,4.889,4.889,0,0,1,4.1.1,6.4,6.4,0,0,1,3,6.2h-1a5.74,5.74,0,0,0-2.5-5.3,3.936,3.936,0,0,0-3.2-.1,2.839,2.839,0,0,0-1.6,1.8,3.751,3.751,0,0,0,0,1.5,5.968,5.968,0,0,0,5.7,4.8Z" fill="#eb8c02"/>
              </g>
            </g>
          </g>
          <path id="XMLID_32_" d="M124.1,442.9c-5.5,5.4-8.7,12.8-10.4,20.3s-1.9,15.2-2.1,22.9c-.5,18.6-1.1,37.2-1.6,55.9-.1,4.1-3.7,7.2-6.5,10.2s-5.8,6.5-5.5,10.6a1.884,1.884,0,0,0,.2.8c.4.7,1.6.6,2.2,0a4.646,4.646,0,0,0,.9-2.4,15.626,15.626,0,0,1,5.5-8.5c-2.3,4.8-4.7,9.9-4.5,15.3a1.461,1.461,0,0,0,.4,1.2,1.156,1.156,0,0,0,1.6-.4,3.743,3.743,0,0,0,.5-1.8,28.509,28.509,0,0,1,5-13.7c-1.5,4.7-3.1,9.7-2.3,14.6.1.8.5,1.8,1.3,1.9,1.2.1,1.5-1.5,1.5-2.7a29.407,29.407,0,0,1,1.9-11.4,89.672,89.672,0,0,0,.3,10.4c.1,1.3.9,3,2.1,2.4a1.95,1.95,0,0,0,.8-1.8c.3-3.6.7-7.1,1-10.7a10.434,10.434,0,0,1,1-4.3,3.772,3.772,0,0,1,3.5-2.2c1.5.1,2.7,1.5,3.6,2.7.9,1.1,1.7,2.2,2.6,3.3a6.061,6.061,0,0,0,2,1.9,2.068,2.068,0,0,0,2.5-.4c1-1.3-.6-3-1.7-4.2-3.8-4-3.9-10.9-8.4-14.1-.7-7.1.1-14.6.9-21.7q3.3-27.6,6.8-55a161.379,161.379,0,0,0,12.9-16.7Z" fill="#f7b797"/>
          <path id="XMLID_918_" d="M124.1,442.9a36.526,36.526,0,0,0-8.6,14.1c6-.1,12.1-.3,18.2-.2,2.9-3.6,5.7-7.2,8.4-11.2Z" fill="#dd8c7a"/>
          <path id="XMLID_23_" d="M222.5,448.2a87.875,87.875,0,0,0,10.9,11.1,201.223,201.223,0,0,0,30.8-23.6c2.6-3.9,7.1-5.6,6.3-3.7a9.189,9.189,0,0,1,3.1,2c-3.8,6.2-7.7,12.6-11.6,18.9-4.5,7.3-9.2,14.8-16.1,19.9a15.829,15.829,0,0,1-7.4,3.2,15.374,15.374,0,0,1-6-.9,42.712,42.712,0,0,1-9.8-5.4,123.8,123.8,0,0,1-12.6-10.1Z" fill="#f7b797"/>
          <path id="XMLID_880_" d="M222.5,448.2l-12.3,11.3a115.836,115.836,0,0,0,12.3,9.9,70.806,70.806,0,0,1,6.1-14.4C226.5,452.8,224.5,450.6,222.5,448.2Z" fill="#dd8c7a"/>
          <path id="XMLID_22_" d="M205.8,417.4A278.505,278.505,0,0,0,228,449.2a89.165,89.165,0,0,1-24.6,23.2,83.148,83.148,0,0,1-7.2-19.9Z" fill="#f36700"/>
          <g id="XMLID_14_">
            <path id="XMLID_16_" d="M200.6,469.1c6.5-4.2,10.3-11.5,11.9-19.1,1.6-8,.9-16.2.1-24.2-.6-6.3-4.1-11.3-9.4-14.8-3.1-2.1-6.4-4.2-10.1-5C202.1,424.9,203.9,448.5,200.6,469.1Z" fill="#516882"/>
            <path id="XMLID_21_" d="M209.5,438.7c.6,0,1.5-.4,2-.2-.3,16.3-.6,32.7-.9,49-.7-.1-1.8.1-2.4,0Z" fill="#344759"/>
            <g id="XMLID_18_">
              <path id="XMLID_515_" d="M212.6,425.8c-.6-6.3-4.1-11.3-9.4-14.8-3.1-2.1-6.4-4.2-10.1-5a95.383,95.383,0,0,1,8.5,31.6l3.3,3a13.112,13.112,0,0,0,8.4,3.4C213.7,438,213.1,431.8,212.6,425.8Z" fill="#839cb5"/>
            </g>
          </g>
          <path id="XMLID_67_" d="M181.5,349.4a39.911,39.911,0,0,0-9-1.3,13.486,13.486,0,0,0-8.5,2.7,16.147,16.147,0,0,0-3.8,4.8,53.79,53.79,0,0,0-4,8.4,17.477,17.477,0,0,0-1.3,8.4c.4,3.5,2.5,6.5,4.4,9.4Z" fill="#eb8c02"/>
          <path id="XMLID_66_" d="M151.5,405.2c-4.4-3.6-4-10.4-2.2-15.7,2.2-6.6,6-12.5,9.9-18.3,5.1-7.6,10.6-15.1,17.7-20.8s16-9.7,25.2-9.3a13.067,13.067,0,0,1,5.5,1.3c4.2,2.2,5.9,7.6,5.2,12.3s-3.4,8.9-6,12.8a313.4,313.4,0,0,1-21,27.6c-4.2,5-9.4,10.1-16.1,11.2C164.5,407.2,155.9,408.8,151.5,405.2Z" fill="#a05320"/>
          <path id="XMLID_15_" d="M201.9,478.2c-1,6.3,0,12.9-1.6,19.1a11.49,11.49,0,0,1-2.6,5.3,11.031,11.031,0,0,1-5.3,2.6,29.894,29.894,0,0,1-18.9-1.4c-2.8-1.2-5.4-2.8-8.3-3.8-4.9-1.6-10.2-1-15.3-1.8s-10.6-3.7-11.5-8.8c-.5-2.8.5-5.6,1.3-8.3,3-9.1,5.5-18.2,6.3-27.7-1.7,1.7-3.4,3.3-5.1,5a71.294,71.294,0,0,0-20.7-12.7c7.1-9.7,14.3-19.4,23-27.6,8.8-8.2,19.3-14.9,31.1-17.4,5.1-1.1,10.5.4,15.5,2,11.7,3.8,16.3,19.1,17.7,31.3C209.1,448.5,204.2,464,201.9,478.2Z" fill="#f36700"/>
          <g id="XMLID_858_">
            <g id="XMLID_943_">
              <path id="XMLID_945_" d="M182.1,459.5c1.9-12.8,8-26,5.6-38.8-.5.1-1.1,1-1.5.7,1.1,10.8-2.3,21.6-4.4,32.3-3.3,16.8-3.4,34.1-6.3,50.9l2.1.6c1.5-9.6,2.6-19.2,3.2-28.9A135.734,135.734,0,0,1,182.1,459.5Z" fill="#a4462e"/>
            </g>
          </g>
          <g id="XMLID_519_">
            <path id="XMLID_663_" d="M171.2,431.9a7,7,0,0,0,4.5,1,11.814,11.814,0,0,0,10-7.4c1.9,1.8,3.8,3.5,5.8,5.3,1.4,1.3,2.9,2.6,4.8,2.6,6.9.1,5.9-9.3,5-13.8-1.3-6.2-4.9-10.8-8.6-15.5a14.763,14.763,0,0,0-2.9-1.2c-5-1.6-10.4-3.1-15.5-2a60.738,60.738,0,0,0-13.2,4.6c2.6,7.5,5.7,15.1,8.3,22.5A4.205,4.205,0,0,0,171.2,431.9Z" fill="#a4462e"/>
          </g>
          <path id="XMLID_7_" d="M201.4,357.8c-.1,5.8,2.3,11.3,3.4,17s.6,12.4-3.9,16c-1,.8-2.1,1.4-3,2.2-2.2,2-3.2,5-4,7.9a148.154,148.154,0,0,0-3.6,19.9c-.2,1.9-.6,4-2.2,5-2.1,1.2-4.7-.4-6.3-2.2-5.5-6-7.8-14.2-9.9-22.1a16.452,16.452,0,0,0,1.2-9.8c-3.2-.5-6.3-2.3-9.1-3.9a4.644,4.644,0,0,1-1.8-1.6,4.191,4.191,0,0,1-.4-3.1c.7-6.7,4.7-12.5,8.9-17.8,3.7-4.6,7.9-9,13.3-11.2S197.5,353.4,201.4,357.8Z" fill="#f7b797"/>
          <g id="XMLID_655_">
            <g id="XMLID_885_">
              <g id="XMLID_886_">
                <path id="XMLID_887_" d="M200.1,388.5c-4.1.4-8,1.9-12.1,2.6-4.1.6-8.6.3-11.7-2.5.8,3.3,3.8,5.2,7,6.3s6.7,1.6,9.5,3.6a15.376,15.376,0,0,1,1.3,1.2c.7-2.5,1.7-5.1,3.7-6.8.9-.8,2-1.4,3-2.2a13.649,13.649,0,0,0,1.7-1.7A2.743,2.743,0,0,0,200.1,388.5Z" fill="#dd8c7a"/>
              </g>
            </g>
          </g>
          <path id="XMLID_6_" d="M157.2,385.4c4.9-11,11.2-21.9,20.6-29.4a25.9,25.9,0,0,1,9.1-4.9,14.114,14.114,0,0,1,10.1.8c1.6.8,3,2.1,4.5,3a13.1,13.1,0,0,0,7.2,1.8c-1.7,2.1-3.9,4.4-6.5,4.1a5.847,5.847,0,0,1-2.8-1.2c-2.8-1.8-5.1-4.4-8.2-5.4a11.369,11.369,0,0,0-9.3,1.4,20.728,20.728,0,0,0-6.6,6.9,6.563,6.563,0,0,0-1.2,3c-.3,2.2,1.1,4.4.3,6.5-.6,1.5-2.3,2.5-2.6,4.2-.4,2,1.6,4.2.8,6.1a22.41,22.41,0,0,0-5.3-2.3c-1-.3-2.3-.5-3,.2-.9.9-.4,2.4.3,3.5a10.2,10.2,0,0,0,4.8,3.9,7.621,7.621,0,0,0,6.1-.3c.3-.2.7-.4,1-.2a2.182,2.182,0,0,1,.5.4c1.2,1.4,2.4,2.8,3.5,4.3-2.1,2.5-5.8,2.6-9,2.6a20.916,20.916,0,0,1-5.6-.6c-2.9-.9-5.3-3.1-7.5-5.2C157.6,387.9,156.8,386.3,157.2,385.4Z" fill="#663012"/>
          <ellipse id="XMLID_8_" cx="0.9" cy="2.4" rx="0.9" ry="2.4" transform="translate(185.926 360.244) rotate(-12.07)" fill="#663012"/>
          <ellipse id="XMLID_10_" cx="0.9" cy="2.4" rx="0.9" ry="2.4" transform="matrix(0.991, -0.133, 0.133, 0.991, 198.39, 359.654)" fill="#663012"/>
          <path id="XMLID_9_" d="M188.5,354.8a5.2,5.2,0,0,0-4,.7,9.812,9.812,0,0,0-4.2,4.8.573.573,0,0,0,.8.6,3.114,3.114,0,0,0,.7-.9,5.823,5.823,0,0,1,2.3-2.6,11.579,11.579,0,0,1,4.2-1.4c.3-.1.6-.1.8-.4S188.8,354.7,188.5,354.8Z" fill="#663012"/>
          <path id="XMLID_11_" d="M200.7,364.1a25.824,25.824,0,0,1,2.6.8,3.166,3.166,0,0,1,1.7,1.9,3.076,3.076,0,0,1-1.4,2.7,11.668,11.668,0,0,1-2.6,1.7c-1.1.5-2.7.7-3.5-.2a2.01,2.01,0,0,1-.4-.8,33.8,33.8,0,0,1-1.8-6.2c-.3-1.5-.3-3.3,1.6-2.3C198.1,362.5,199.1,363.6,200.7,364.1Z" fill="#f49a98"/>
          <path id="XMLID_12_" d="M201.1,369.1a4.466,4.466,0,0,1-2.4,1.6,2.168,2.168,0,0,1,1.6-2.2c.2,0,.6-.2.7-.1A1.7,1.7,0,0,1,201.1,369.1Z" fill="#663012"/>
          <path id="XMLID_13_" d="M201.1,374.1a1.691,1.691,0,0,1,1.4.1c.2.2.3.4.5.6.3.5.5,1.1.1,1.5a1.344,1.344,0,0,1-.9.2,8.955,8.955,0,0,0-4,.8c-.7.3-2.4,1.9-2.6.8C194.9,376,199.7,374.4,201.1,374.1Z" fill="#663012"/>
          <path id="XMLID_17_" d="M141.4,471.2c-.6-5.6-.4-12.7,4-16.3,4-3.3,7-7.7,9.7-12.1,3.5-5.8,8.9-19,4.8-36.7a17.985,17.985,0,0,1,12.1-4.5c4.2,13.9,5.6,27.8.9,41.5S155.6,468.3,141.4,471.2Z" fill="#516882"/>
          <path id="XMLID_19_" d="M171.5,482.7c-1-.4-2.2-1.1-3.2-1.5a327.322,327.322,0,0,1-1.8-48.5c.8.4,1.7.6,2.5,1C169.3,449.3,170.9,467.2,171.5,482.7Z" fill="#344759"/>
          <g id="XMLID_518_">
            <path id="XMLID_658_" d="M168.3,436.4a19.6,19.6,0,0,0,6.4.1c2.4-11.6.8-23.2-2.7-34.9a18.493,18.493,0,0,0-12.1,4.5,52.73,52.73,0,0,1-.2,25.8A18.309,18.309,0,0,0,168.3,436.4Z" fill="#839cb5"/>
          </g>
          <path id="XMLID_24_" d="M285.8,418.3c-5.8,7.6-11.3,14.7-17,22.2a28.452,28.452,0,0,1-6-5.5c5.2-7.3,10.8-15,16.6-21.9C281.2,414.7,284.1,416.4,285.8,418.3Z" fill="#516882"/>
          <path id="XMLID_25_" d="M279.3,413.1l2.5-11.6L295,413.1l-9.2,5.2Z" fill="#839cb5"/>
          <path id="XMLID_26_" d="M281.8,401.5,295,413.1l2.6-3.2-13.8-12.1Z" fill="#516882"/>
          <path id="XMLID_27_" d="M264.4,432.8c-.2-1.7-.8-3.4-.5-5.1a6.355,6.355,0,0,1,2.5-4.2,6.154,6.154,0,0,1,2.9-.9,17.85,17.85,0,0,1,4-.1,1.844,1.844,0,0,1,1.3.4c.7.7.2,1.9-.6,2.5s-1.8.7-2.6,1.2C269.9,427.6,265.7,432.5,264.4,432.8Z" fill="#f7b797"/>
          <path id="XMLID_28_" d="M272.8,435.7a5.663,5.663,0,0,0,3.8-1.3c.3-.3.7-.6.8-1a2.409,2.409,0,0,0-.4-1.8,18.107,18.107,0,0,0-1.8-2.7,3.891,3.891,0,0,0-2-1.6,1.481,1.481,0,0,0-1.3.2,2.185,2.185,0,0,0-.3.5c-.4,1,.2,2,.9,2.9.6.8,1.4,1.7,1.3,2.8A7.454,7.454,0,0,1,272.8,435.7Z" fill="#f7b797"/>
          <path id="XMLID_29_" d="M279.4,430.4a3.51,3.51,0,0,0-.6-1.8c-1.1-2-2.3-4.1-4.5-4.7a2.054,2.054,0,0,0-1.1,0,1.346,1.346,0,0,0-.8,1.5,3.485,3.485,0,0,0,.6,1.7c.7,1.4,1.7,4.8,3.2,5.4A2.441,2.441,0,0,0,279.4,430.4Z" fill="#f7b797"/>
          <path id="XMLID_30_" d="M280.4,426.7a10.536,10.536,0,0,0-1.2-3.8,3.587,3.587,0,0,0-1.5-1.7,1.876,1.876,0,0,0-2.5,1.3c-.2,1.1.6,2.1,1,3.1a13.858,13.858,0,0,1,.9,3.5,2.292,2.292,0,0,0,.6,1.5C279.4,431.9,280.5,427.6,280.4,426.7Z" fill="#f7b797"/>
          <path id="XMLID_31_" d="M283.4,425.4a7.552,7.552,0,0,0-2.7-6.3c-.2-.1-.3-.3-.6-.3-.5,0-.8.6-.7,1.1a12.09,12.09,0,0,0,.8,2.5c.6,1.9-2.2,3.2-1,4.4C280.3,428.2,283.2,427,283.4,425.4Z" fill="#f7b797"/>
          <path id="XMLID_34_" d="M155,496.7c1.4-1.3,3.8-.4,4.7,1.3s.7,3.7.5,5.6c-.9,7.2-2.1,14.5-3.4,21.6-.3,1.3-.6,2.8-1.6,3.7a6.154,6.154,0,0,1-3.8,1.2,32.351,32.351,0,0,1-18.2-4.6,4.061,4.061,0,0,1-1.5-1.4,3.591,3.591,0,0,1-.2-1.8,71.945,71.945,0,0,1,4.9-22.5Z" fill="#663012"/>
          <path id="XMLID_41_" d="M210.9,599.3a51.77,51.77,0,0,0,15.1-3.4c1.1-.4,2.7-.8,3.3.2a1.939,1.939,0,0,1,.2,1.5c-.1,2.1-.3,4.3-.6,6.4a10.4,10.4,0,0,1-.9,3c-1.8,2.7-5.8,2.3-9,1.4C214.4,607.1,196.3,600.4,210.9,599.3Z" fill="#a4462e"/>
          <path id="XMLID_42_" d="M213.5,646c5.5,13.8,4.5,30.4.2,44.6C213,693.2,214.7,662.3,213.5,646Z" fill="#a4462e"/>
          <path id="XMLID_43_" d="M221,707.5c-.1-10.7.3-21.3,1.2-32C224.3,686.7,222.5,696.2,221,707.5Z" fill="#a4462e"/>
          <path id="XMLID_44_" d="M130.9,717.5c-4.2-16.8-9.5-33.7-8.7-51-1,7.5-2.6,16.2-1.5,23.8C122,699.6,126.5,709.2,130.9,717.5Z" fill="#a4462e"/>
          <path id="XMLID_45_" d="M133.4,650c.7-10.7,1.4-21.3,2.2-32C132.3,627.8,130.9,640,133.4,650Z" fill="#a4462e"/>
          <g id="XMLID_47_">
            <g id="XMLID_39_">
              <path id="XMLID_40_" d="M133.8,761.9a14.732,14.732,0,0,0,4.7.4,52.313,52.313,0,0,0,12.4-1.8V760a11.151,11.151,0,0,0-5.2-8.6c-2-1.3-4.4-1.9-6.7-2.7a27.832,27.832,0,0,1-17-21.5,18.455,18.455,0,0,0-7-.5,2.973,2.973,0,0,0-2,.8,3.371,3.371,0,0,0-.5,1.7,23.393,23.393,0,0,1-.9,3.8,1.612,1.612,0,0,1-.4.7,1.269,1.269,0,0,1-.6.1,6.475,6.475,0,0,1-5.1-3.6c-.7-1.4-.8-3-1.3-4.5s-1.5-3-3.1-3.3a25.98,25.98,0,0,0-6.3,12.2c11.2,8.1,22.5,16.3,33.7,24.4A19.412,19.412,0,0,0,133.8,761.9Z" fill="#180500"/>
              <path id="XMLID_878_" d="M138.5,762.3a18.294,18.294,0,0,1-4.7-.4,17.324,17.324,0,0,1-5.3-3c-11.2-8.1-22.5-16.3-33.7-24.4l-.3,1.2a5.22,5.22,0,0,0,.7,4.4,4.968,4.968,0,0,0,1.9,1.3,102.249,102.249,0,0,1,20.7,14.4c3,2.7,5.9,5.6,9.5,7.3,6.1,3,13.2,2.3,19.9,1.6a5.125,5.125,0,0,0,2.2-.6,4.181,4.181,0,0,0,1.5-3.6A52.313,52.313,0,0,1,138.5,762.3Z" fill="#f4b795"/>
            </g>
            <g id="XMLID_48_">
              <path id="XMLID_879_" d="M117.4,738.9a4.761,4.761,0,0,0,2.8,2.2,43.241,43.241,0,0,1,5-4.5,23.215,23.215,0,0,1-1.8-3.9A39.039,39.039,0,0,0,117.4,738.9Z" fill="#f4b795"/>
              <path id="XMLID_882_" d="M123.2,742.9c.6.8.8,1.9,1.5,2.6a39.43,39.43,0,0,1,4.5-3.6,31.126,31.126,0,0,1-2.3-2.8A26.514,26.514,0,0,0,123.2,742.9Z" fill="#f4b795"/>
            </g>
          </g>
          <g id="XMLID_50_">
            <g id="XMLID_55_">
              <path id="XMLID_897_" d="M292,718.4a17.861,17.861,0,0,0,3.1-3.6,58.633,58.633,0,0,0,5.8-11.1c-.1-.1-.3-.2-.4-.3a11.383,11.383,0,0,0-10-.8c-2.2.9-4.1,2.5-6.1,3.8-7.9,5.1-19.1,5.7-27.4,1.2a18.038,18.038,0,0,0-4.5,5.4,2.673,2.673,0,0,0-.5,2.1,3.007,3.007,0,0,0,1.1,1.4,18.1,18.1,0,0,1,2.5,3,1.08,1.08,0,0,1,.3.7.85.85,0,0,1-.3.5,6.69,6.69,0,0,1-6,2,38.9,38.9,0,0,1-4.4-1.6c-1.5-.5-3.3-.5-4.4.6a25.4,25.4,0,0,0,6.2,12.2c13.2-4.4,26.4-8.7,39.6-13.1A16.284,16.284,0,0,0,292,718.4Z" fill="#180500"/>
              <path id="XMLID_895_" d="M295.1,714.8a15.174,15.174,0,0,1-3.1,3.6,17.96,17.96,0,0,1-5.6,2.6c-13.2,4.4-26.4,8.7-39.6,13.1l.9.9a5.383,5.383,0,0,0,4,2,5.838,5.838,0,0,0,2.2-.8,100.606,100.606,0,0,1,23.8-8.4c3.9-.9,8-1.5,11.5-3.4,5.9-3.2,9.6-9.3,12.9-15.2a4.531,4.531,0,0,0,.8-2.2,4.1,4.1,0,0,0-2-3.3A58.628,58.628,0,0,1,295.1,714.8Z" fill="#f4b795"/>
            </g>
            <g id="XMLID_52_">
              <path id="XMLID_54_" d="M263.8,718.3a4.593,4.593,0,0,0,3.4-1,37.131,37.131,0,0,1-.7-6.7,20.731,20.731,0,0,1-4.2-.8A42.14,42.14,0,0,0,263.8,718.3Z" fill="#f4b795"/>
              <path id="XMLID_53_" d="M270.5,715.9a15.136,15.136,0,0,0,3,.2,36.308,36.308,0,0,1-.3-5.7,21.736,21.736,0,0,1-3.6.2A23.51,23.51,0,0,0,270.5,715.9Z" fill="#f4b795"/>
            </g>
          </g>
          <path id="XMLID_33_" d="M143.8,492.4a8.686,8.686,0,0,0-4.1-1.1,6.289,6.289,0,0,0-2.8,1.2c-3.8,2.8-4.7,8.2-4.4,13a4.45,4.45,0,0,0,.7,2.3,4.011,4.011,0,0,0,1.7.9c1.5.5,3.1.9,4.6,1.4,2.8.8,6,1.4,8.4-.2,2.5-1.7,2.9-5.1,4.4-7.8a10.241,10.241,0,0,1,4.4-4.1c1.5-.8,4-.8,1.9-2-1.6-.9-5.4-.7-7.3-1.1A59.944,59.944,0,0,1,143.8,492.4Z" fill="#894828"/>
          <ellipse id="XMLID_35_" cx="1.4" cy="2.6" rx="1.4" ry="2.6" transform="translate(138.3 501)" fill="#663012"/>
        </g>
        <path id="XMLID_5_" d="M1329.072,662.61,297.545,1360.657l-13.733-12.071,339.54-716.548H1300.86Z" transform="translate(0 -950.761)" opacity="0.28" fill="url(#linear-gradient)"/>
      </g>
    </g>
  </g>
</svg>
